<svg xmlns="http://www.w3.org/2000/svg" xmlns:xlink="http://www.w3.org/1999/xlink" zoomAndPan="magnify" viewBox="0 380 1500 480" preserveAspectRatio="xMidYMid meet" version="1.0"><defs><g/><clipPath id="6b2a49f564"><rect x="0" width="723" y="0" height="194"/></clipPath><clipPath id="645a72d1e9"><path d="M 0.199219 135 L 161 135 L 161 258 L 0.199219 258 Z M 0.199219 135 " clip-rule="nonzero"/></clipPath><clipPath id="2c7f7615c4"><rect x="0" width="776" y="0" height="483"/></clipPath></defs><g transform="matrix(1, 0, 0, 1, 777, 625)"><g clip-path="url(#6b2a49f564)"><g fill="#1b1b1b" fill-opacity="1"><g transform="translate(0.803052, 154.578515)"><g><path d="M 66.15625 3.203125 C 57.988281 3.203125 50.429688 1.660156 43.484375 -1.421875 C 36.546875 -4.515625 30.46875 -8.78125 25.25 -14.21875 C 20.03125 -19.65625 15.96875 -25.957031 13.0625 -33.125 C 10.15625 -40.289062 8.703125 -47.992188 8.703125 -56.234375 C 8.703125 -64.460938 10.15625 -72.160156 13.0625 -79.328125 C 15.96875 -86.492188 20.03125 -92.796875 25.25 -98.234375 C 30.46875 -103.671875 36.546875 -107.929688 43.484375 -111.015625 C 50.429688 -114.109375 57.988281 -115.65625 66.15625 -115.65625 C 75.125 -115.65625 83.242188 -113.925781 90.515625 -110.46875 C 97.796875 -107.019531 103.988281 -102.296875 109.09375 -96.296875 C 114.195312 -90.304688 117.851562 -83.421875 120.0625 -75.640625 L 100.546875 -75.640625 C 97.609375 -82.910156 93.070312 -88.421875 86.9375 -92.171875 C 80.800781 -95.921875 73.910156 -97.796875 66.265625 -97.796875 C 61.335938 -97.796875 56.578125 -96.835938 51.984375 -94.921875 C 47.390625 -93.015625 43.253906 -90.257812 39.578125 -86.65625 C 35.898438 -83.050781 32.992188 -78.675781 30.859375 -73.53125 C 28.734375 -68.394531 27.671875 -62.628906 27.671875 -56.234375 C 27.671875 -49.765625 28.753906 -43.957031 30.921875 -38.8125 C 33.085938 -33.664062 36.007812 -29.289062 39.6875 -25.6875 C 43.363281 -22.082031 47.5 -19.320312 52.09375 -17.40625 C 56.6875 -15.5 61.410156 -14.546875 66.265625 -14.546875 C 73.835938 -14.546875 80.707031 -16.472656 86.875 -20.328125 C 93.050781 -24.191406 97.609375 -29.984375 100.546875 -37.703125 L 119.953125 -37.703125 C 117.816406 -29.617188 114.210938 -22.507812 109.140625 -16.375 C 104.078125 -10.238281 97.867188 -5.441406 90.515625 -1.984375 C 83.160156 1.472656 75.039062 3.203125 66.15625 3.203125 Z M 66.15625 3.203125 "/></g></g></g><g fill="#1b1b1b" fill-opacity="1"><g transform="translate(114.36829, 154.578515)"><g><path d="M 67.140625 3.203125 C 58.835938 3.203125 51.140625 1.675781 44.046875 -1.375 C 36.953125 -4.425781 30.757812 -8.671875 25.46875 -14.109375 C 20.175781 -19.546875 16.054688 -25.863281 13.109375 -33.0625 C 10.171875 -40.269531 8.703125 -47.992188 8.703125 -56.234375 C 8.703125 -64.460938 10.171875 -72.160156 13.109375 -79.328125 C 16.054688 -86.492188 20.15625 -92.796875 25.40625 -98.234375 C 30.664062 -103.671875 36.84375 -107.929688 43.9375 -111.015625 C 51.03125 -114.109375 58.765625 -115.65625 67.140625 -115.65625 C 75.523438 -115.65625 83.28125 -114.128906 90.40625 -111.078125 C 97.53125 -108.023438 103.738281 -103.78125 109.03125 -98.34375 C 114.332031 -92.90625 118.453125 -86.582031 121.390625 -79.375 C 124.328125 -72.175781 125.796875 -64.460938 125.796875 -56.234375 C 125.796875 -47.992188 124.328125 -40.269531 121.390625 -33.0625 C 118.453125 -25.863281 114.332031 -19.546875 109.03125 -14.109375 C 103.738281 -8.671875 97.53125 -4.425781 90.40625 -1.375 C 83.28125 1.675781 75.523438 3.203125 67.140625 3.203125 Z M 67.359375 -14.65625 C 72.953125 -14.65625 78.132812 -15.6875 82.90625 -17.75 C 87.6875 -19.8125 91.875 -22.710938 95.46875 -26.453125 C 99.070312 -30.203125 101.863281 -34.613281 103.84375 -39.6875 C 105.832031 -44.757812 106.828125 -50.273438 106.828125 -56.234375 C 106.828125 -62.179688 105.832031 -67.671875 103.84375 -72.703125 C 101.863281 -77.742188 99.070312 -82.140625 95.46875 -85.890625 C 91.875 -89.640625 87.6875 -92.5625 82.90625 -94.65625 C 78.132812 -96.75 72.953125 -97.796875 67.359375 -97.796875 C 61.773438 -97.796875 56.578125 -96.75 51.765625 -94.65625 C 46.953125 -92.5625 42.742188 -89.640625 39.140625 -85.890625 C 35.535156 -82.140625 32.722656 -77.742188 30.703125 -72.703125 C 28.679688 -67.671875 27.671875 -62.179688 27.671875 -56.234375 C 27.671875 -50.273438 28.679688 -44.757812 30.703125 -39.6875 C 32.722656 -34.613281 35.535156 -30.203125 39.140625 -26.453125 C 42.742188 -22.710938 46.953125 -19.8125 51.765625 -17.75 C 56.578125 -15.6875 61.773438 -14.65625 67.359375 -14.65625 Z M 67.359375 -14.65625 "/></g></g></g><g fill="#1b1b1b" fill-opacity="1"><g transform="translate(235.319957, 154.578515)"><g><path d="M 37.15625 0 L 18.1875 0 L 18.1875 -112.453125 L 36.390625 -112.453125 L 36.390625 -90.734375 C 38.515625 -95.585938 41.613281 -99.890625 45.6875 -103.640625 C 49.769531 -107.390625 54.566406 -110.328125 60.078125 -112.453125 C 65.597656 -114.585938 71.519531 -115.65625 77.84375 -115.65625 C 92.757812 -115.65625 104.078125 -111.039062 111.796875 -101.8125 C 119.515625 -92.59375 123.375 -78.976562 123.375 -60.96875 L 123.375 0 L 104.40625 0 L 104.40625 -60.640625 C 104.40625 -73.578125 101.613281 -83.019531 96.03125 -88.96875 C 90.445312 -94.925781 82.765625 -97.90625 72.984375 -97.90625 C 68.285156 -97.90625 63.785156 -97.019531 59.484375 -95.25 C 55.179688 -93.488281 51.359375 -90.914062 48.015625 -87.53125 C 44.671875 -84.15625 42.023438 -80.078125 40.078125 -75.296875 C 38.128906 -70.523438 37.15625 -65.125 37.15625 -59.09375 Z M 37.15625 0 "/></g></g></g><g fill="#1b1b1b" fill-opacity="1"><g transform="translate(358.917411, 154.578515)"><g><path d="M 82.359375 0 L 61.625 0 C 57.363281 0 53.140625 -0.550781 48.953125 -1.65625 C 44.765625 -2.757812 40.960938 -4.78125 37.546875 -7.71875 C 34.128906 -10.65625 31.390625 -14.863281 29.328125 -20.34375 C 27.265625 -25.820312 26.234375 -32.929688 26.234375 -41.671875 L 26.234375 -95.8125 L 1.21875 -95.8125 L 1.21875 -112.453125 L 26.234375 -112.453125 L 26.234375 -145.859375 L 45.203125 -145.96875 L 45.203125 -112.453125 L 82.359375 -112.453125 L 82.359375 -95.8125 L 45.203125 -95.8125 L 45.203125 -40.796875 C 45.203125 -35.578125 45.769531 -31.332031 46.90625 -28.0625 C 48.050781 -24.789062 49.597656 -22.289062 51.546875 -20.5625 C 53.492188 -18.832031 55.660156 -17.65625 58.046875 -17.03125 C 60.429688 -16.40625 62.875 -16.09375 65.375 -16.09375 L 82.359375 -16.09375 Z M 82.359375 0 "/></g></g></g><g fill="#1b1b1b" fill-opacity="1"><g transform="translate(430.47899, 154.578515)"><g><path d="M 121.5 -58.984375 C 121.5 -58.023438 121.476562 -57.015625 121.4375 -55.953125 C 121.40625 -54.890625 121.316406 -53.328125 121.171875 -51.265625 L 27.890625 -51.265625 C 28.703125 -43.765625 30.90625 -37.257812 34.5 -31.75 C 38.101562 -26.238281 42.625 -21.992188 48.0625 -19.015625 C 53.507812 -16.035156 59.316406 -14.546875 65.484375 -14.546875 C 73.054688 -14.546875 79.523438 -16.179688 84.890625 -19.453125 C 90.253906 -22.722656 94.1875 -27.519531 96.6875 -33.84375 L 117.96875 -33.84375 C 116.351562 -28.695312 113.945312 -23.878906 110.75 -19.390625 C 107.550781 -14.910156 103.691406 -11 99.171875 -7.65625 C 94.648438 -4.3125 89.578125 -1.6875 83.953125 0.21875 C 78.328125 2.132812 72.320312 3.09375 65.9375 3.09375 C 57.769531 3.09375 50.210938 1.566406 43.265625 -1.484375 C 36.328125 -4.535156 30.265625 -8.78125 25.078125 -14.21875 C 19.898438 -19.65625 15.875 -25.957031 13 -33.125 C 10.132812 -40.289062 8.703125 -47.992188 8.703125 -56.234375 C 8.703125 -64.460938 10.132812 -72.160156 13 -79.328125 C 15.875 -86.492188 19.898438 -92.796875 25.078125 -98.234375 C 30.265625 -103.671875 36.328125 -107.929688 43.265625 -111.015625 C 50.210938 -114.109375 57.769531 -115.65625 65.9375 -115.65625 C 74.019531 -115.65625 81.457031 -114.144531 88.25 -111.125 C 95.050781 -108.113281 100.929688 -103.960938 105.890625 -98.671875 C 110.859375 -93.378906 114.703125 -87.332031 117.421875 -80.53125 C 120.140625 -73.738281 121.5 -66.554688 121.5 -58.984375 Z M 28.78125 -68.03125 L 102.09375 -68.03125 C 101.800781 -72 100.644531 -75.78125 98.625 -79.375 C 96.601562 -82.976562 93.9375 -86.15625 90.625 -88.90625 C 87.320312 -91.664062 83.519531 -93.835938 79.21875 -95.421875 C 74.914062 -97.003906 70.375 -97.796875 65.59375 -97.796875 C 60.007812 -97.796875 54.679688 -96.65625 49.609375 -94.375 C 44.535156 -92.09375 40.160156 -88.75 36.484375 -84.34375 C 32.816406 -79.9375 30.25 -74.5 28.78125 -68.03125 Z M 28.78125 -68.03125 "/></g></g></g><g fill="#1b1b1b" fill-opacity="1"><g transform="translate(545.367157, 154.578515)"><g><path d="M 55.671875 3.203125 C 47.804688 3.203125 40.929688 2.148438 35.046875 0.046875 C 29.171875 -2.046875 24.285156 -4.875 20.390625 -8.4375 C 16.492188 -12 13.570312 -16.039062 11.625 -20.5625 C 9.675781 -25.082031 8.703125 -29.734375 8.703125 -34.515625 L 27.015625 -34.40625 C 27.085938 -30.351562 28.242188 -26.632812 30.484375 -23.25 C 32.722656 -19.875 35.972656 -17.191406 40.234375 -15.203125 C 44.503906 -13.222656 49.722656 -12.234375 55.890625 -12.234375 C 64.421875 -12.234375 70.851562 -13.90625 75.1875 -17.25 C 79.53125 -20.59375 81.703125 -25.097656 81.703125 -30.765625 C 81.703125 -34.953125 80.5625 -38.238281 78.28125 -40.625 C 76 -43.019531 72.742188 -44.859375 68.515625 -46.140625 C 64.296875 -47.421875 59.242188 -48.539062 53.359375 -49.5 C 48.140625 -50.3125 43.160156 -51.429688 38.421875 -52.859375 C 33.679688 -54.296875 29.472656 -56.265625 25.796875 -58.765625 C 22.117188 -61.265625 19.234375 -64.460938 17.140625 -68.359375 C 15.046875 -72.253906 14 -77.03125 14 -82.6875 C 14 -88.863281 15.488281 -94.429688 18.46875 -99.390625 C 21.445312 -104.347656 25.929688 -108.296875 31.921875 -111.234375 C 37.910156 -114.179688 45.351562 -115.65625 54.25 -115.65625 C 62.914062 -115.65625 70.484375 -114.203125 76.953125 -111.296875 C 83.421875 -108.390625 88.457031 -104.398438 92.0625 -99.328125 C 95.664062 -94.265625 97.46875 -88.460938 97.46875 -81.921875 L 78.828125 -81.921875 C 78.535156 -87.285156 76.238281 -91.601562 71.9375 -94.875 C 67.632812 -98.144531 61.738281 -99.78125 54.25 -99.78125 C 49.394531 -99.78125 45.382812 -99.023438 42.21875 -97.515625 C 39.0625 -96.015625 36.691406 -93.992188 35.109375 -91.453125 C 33.535156 -88.921875 32.75 -86.144531 32.75 -83.125 C 32.75 -79.601562 33.535156 -76.703125 35.109375 -74.421875 C 36.691406 -72.140625 39.445312 -70.28125 43.375 -68.84375 C 47.3125 -67.414062 52.769531 -66.113281 59.75 -64.9375 C 64.894531 -64.125 69.929688 -63.070312 74.859375 -61.78125 C 79.785156 -60.5 84.210938 -58.679688 88.140625 -56.328125 C 92.078125 -53.984375 95.203125 -50.828125 97.515625 -46.859375 C 99.828125 -42.890625 100.984375 -37.851562 100.984375 -31.75 C 100.984375 -24.101562 99.070312 -17.671875 95.25 -12.453125 C 91.4375 -7.234375 86.128906 -3.316406 79.328125 -0.703125 C 72.523438 1.898438 64.640625 3.203125 55.671875 3.203125 Z M 55.671875 3.203125 "/></g></g></g><g fill="#1b1b1b" fill-opacity="1"><g transform="translate(640.521429, 154.578515)"><g><path d="M 82.359375 0 L 61.625 0 C 57.363281 0 53.140625 -0.550781 48.953125 -1.65625 C 44.765625 -2.757812 40.960938 -4.78125 37.546875 -7.71875 C 34.128906 -10.65625 31.390625 -14.863281 29.328125 -20.34375 C 27.265625 -25.820312 26.234375 -32.929688 26.234375 -41.671875 L 26.234375 -95.8125 L 1.21875 -95.8125 L 1.21875 -112.453125 L 26.234375 -112.453125 L 26.234375 -145.859375 L 45.203125 -145.96875 L 45.203125 -112.453125 L 82.359375 -112.453125 L 82.359375 -95.8125 L 45.203125 -95.8125 L 45.203125 -40.796875 C 45.203125 -35.578125 45.769531 -31.332031 46.90625 -28.0625 C 48.050781 -24.789062 49.597656 -22.289062 51.546875 -20.5625 C 53.492188 -18.832031 55.660156 -17.65625 58.046875 -17.03125 C 60.429688 -16.40625 62.875 -16.09375 65.375 -16.09375 L 82.359375 -16.09375 Z M 82.359375 0 "/></g></g></g></g></g><g transform="matrix(1, 0, 0, 1, 7, 527)"><g clip-path="url(#2c7f7615c4)"><g clip-path="url(#645a72d1e9)"><g fill="#1b1b1b" fill-opacity="1"><g transform="translate(0.360839, 257.926353)"><g><path d="M 158.6875 -59.484375 C 159.644531 -58.992188 160.125 -58.109375 160.125 -56.828125 C 160.125 -56.179688 160.046875 -55.703125 159.890625 -55.390625 C 149.617188 -37.242188 139.101562 -23.472656 128.34375 -14.078125 C 117.59375 -4.691406 106.195312 0 94.15625 0 C 88.695312 0 84.238281 -0.800781 80.78125 -2.40625 C 77.332031 -4.007812 74.96875 -6.097656 73.6875 -8.671875 C 72.238281 -11.398438 71.515625 -14.445312 71.515625 -17.8125 C 71.515625 -23.914062 73.800781 -31.34375 78.375 -40.09375 C 82.945312 -48.84375 89.648438 -58.992188 98.484375 -70.546875 L 101.140625 -73.921875 C 103.867188 -77.453125 106.914062 -81.503906 110.28125 -86.078125 C 113.65625 -90.660156 116.546875 -95.15625 118.953125 -99.5625 C 121.359375 -103.976562 122.5625 -107.710938 122.5625 -110.765625 C 122.5625 -113.816406 121.035156 -115.34375 117.984375 -115.34375 C 117.671875 -115.34375 117.3125 -115.300781 116.90625 -115.21875 C 116.507812 -115.132812 116.148438 -115.09375 115.828125 -115.09375 C 112.773438 -114.613281 109.640625 -113.570312 106.421875 -111.96875 C 103.210938 -110.363281 99.925781 -108.359375 96.5625 -105.953125 C 87.40625 -99.210938 79.132812 -91.625 71.75 -83.1875 C 64.375 -74.757812 58.15625 -66.691406 53.09375 -58.984375 C 48.039062 -51.285156 44.226562 -45.1875 41.65625 -40.6875 C 41.65625 -40.6875 41.492188 -40.40625 41.171875 -39.84375 C 40.847656 -39.289062 40.046875 -37.847656 38.765625 -35.515625 C 37.484375 -33.191406 35.359375 -29.421875 32.390625 -24.203125 C 29.421875 -18.984375 25.207031 -11.554688 19.75 -1.921875 L 0 -1.921875 L 66.453125 -120.875 L 86.453125 -120.875 L 67.65625 -87.171875 C 72.957031 -93.265625 78.578125 -99.039062 84.515625 -104.5 C 90.453125 -109.957031 96.507812 -114.375 102.6875 -117.75 C 108.875 -121.125 114.9375 -122.8125 120.875 -122.8125 C 123.445312 -122.8125 125.9375 -122.488281 128.34375 -121.84375 C 130.75 -121.195312 132.597656 -119.753906 133.890625 -117.515625 C 134.691406 -116.390625 135.289062 -115.144531 135.6875 -113.78125 C 136.09375 -112.414062 136.296875 -110.769531 136.296875 -108.84375 C 136.296875 -104.664062 134.929688 -99.164062 132.203125 -92.34375 C 129.472656 -85.519531 124.578125 -77.132812 117.515625 -67.1875 C 112.859375 -60.4375 107.957031 -53.410156 102.8125 -46.109375 C 97.675781 -38.804688 93.742188 -32.265625 91.015625 -26.484375 C 89.085938 -22.472656 88.125 -19.101562 88.125 -16.375 C 88.125 -13.320312 89.085938 -11.113281 91.015625 -9.75 C 92.941406 -8.382812 95.429688 -7.703125 98.484375 -7.703125 C 101.691406 -7.703125 105.300781 -8.460938 109.3125 -9.984375 C 113.332031 -11.515625 117.347656 -13.804688 121.359375 -16.859375 C 126.984375 -21.191406 132.5625 -26.769531 138.09375 -33.59375 C 143.632812 -40.414062 149.050781 -48.640625 154.34375 -58.265625 C 154.988281 -59.390625 155.875 -59.953125 157 -59.953125 C 157.476562 -59.953125 158.039062 -59.796875 158.6875 -59.484375 Z M 158.6875 -59.484375 "/></g></g></g></g><g fill="#1b1b1b" fill-opacity="1"><g transform="translate(145.319875, 257.926353)"><g><path d="M 143.03125 -59.234375 C 144 -58.753906 144.484375 -57.875 144.484375 -56.59375 C 144.484375 -55.945312 144.398438 -55.460938 144.234375 -55.140625 C 139.253906 -46.316406 133.914062 -37.648438 128.21875 -29.140625 C 122.519531 -20.628906 116.300781 -13.644531 109.5625 -8.1875 C 102.820312 -2.726562 95.4375 0 87.40625 0 C 79.539062 0 73.28125 -1.960938 68.625 -5.890625 C 63.96875 -9.828125 61.640625 -15.488281 61.640625 -22.875 C 61.640625 -23.519531 61.640625 -24.203125 61.640625 -24.921875 C 61.640625 -25.640625 61.722656 -26.320312 61.890625 -26.96875 C 55.785156 -18.625 49.519531 -12.082031 43.09375 -7.34375 C 36.675781 -2.601562 30.421875 -0.15625 24.328125 0 L 23.359375 0 C 17.578125 0 12.957031 -1.320312 9.5 -3.96875 C 6.050781 -6.625 3.601562 -9.957031 2.15625 -13.96875 C 0.71875 -17.976562 0 -22.148438 0 -26.484375 C 0 -27.453125 0 -28.375 0 -29.25 C 0 -30.132812 0.078125 -30.976562 0.234375 -31.78125 C 1.203125 -38.6875 3.128906 -46.070312 6.015625 -53.9375 C 8.910156 -61.800781 12.6875 -69.507812 17.34375 -77.0625 C 24.5625 -88.78125 31.539062 -97.96875 38.28125 -104.625 C 45.03125 -111.289062 51.410156 -115.988281 57.421875 -118.71875 C 63.441406 -121.445312 68.941406 -122.8125 73.921875 -122.8125 C 76.015625 -122.8125 77.941406 -122.609375 79.703125 -122.203125 C 81.472656 -121.804688 83.160156 -121.285156 84.765625 -120.640625 C 88.128906 -119.359375 90.570312 -117.226562 92.09375 -114.25 C 93.625 -111.28125 94.390625 -107.710938 94.390625 -103.546875 C 94.390625 -102.097656 94.304688 -100.609375 94.140625 -99.078125 C 93.984375 -97.554688 93.742188 -95.914062 93.421875 -94.15625 L 108.359375 -120.875 L 128.34375 -120.875 L 93.90625 -59.484375 C 88.769531 -50.328125 85.035156 -42.859375 82.703125 -37.078125 C 80.378906 -31.296875 78.816406 -26.320312 78.015625 -22.15625 C 78.015625 -21.832031 77.972656 -21.46875 77.890625 -21.0625 C 77.816406 -20.664062 77.78125 -20.226562 77.78125 -19.75 C 77.78125 -17.5 78.421875 -15.085938 79.703125 -12.515625 C 80.984375 -9.953125 83.390625 -8.269531 86.921875 -7.46875 C 87.410156 -7.300781 87.894531 -7.21875 88.375 -7.21875 C 88.851562 -7.21875 89.332031 -7.21875 89.8125 -7.21875 C 92.539062 -7.21875 95.628906 -8.019531 99.078125 -9.625 C 102.535156 -11.238281 106.269531 -13.96875 110.28125 -17.8125 C 115.257812 -22.632812 120.113281 -28.578125 124.84375 -35.640625 C 129.582031 -42.703125 134.203125 -50.164062 138.703125 -58.03125 C 139.335938 -59.15625 140.21875 -59.71875 141.34375 -59.71875 C 141.820312 -59.71875 142.382812 -59.554688 143.03125 -59.234375 Z M 40.6875 -13.71875 C 50 -20.625 59.234375 -32.101562 68.390625 -48.15625 C 69.828125 -50.882812 71.671875 -54.457031 73.921875 -58.875 C 76.171875 -63.289062 78.335938 -68.109375 80.421875 -73.328125 C 82.515625 -78.546875 84.28125 -83.722656 85.71875 -88.859375 C 87.164062 -93.992188 87.890625 -98.566406 87.890625 -102.578125 C 87.890625 -105.304688 87.488281 -107.671875 86.6875 -109.671875 C 85.882812 -111.679688 84.597656 -113.25 82.828125 -114.375 C 81.546875 -115.175781 80.101562 -115.578125 78.5 -115.578125 C 74.644531 -115.578125 70.304688 -113.609375 65.484375 -109.671875 C 60.671875 -105.742188 55.738281 -100.609375 50.6875 -94.265625 C 45.632812 -87.929688 40.9375 -81.148438 36.59375 -73.921875 C 32.257812 -66.535156 28.523438 -59.191406 25.390625 -51.890625 C 22.265625 -44.585938 20.222656 -37.644531 19.265625 -31.0625 C 18.785156 -28.488281 18.546875 -26 18.546875 -23.59375 C 18.546875 -18.625 19.507812 -14.929688 21.4375 -12.515625 C 23.363281 -10.109375 25.847656 -8.90625 28.890625 -8.90625 C 32.265625 -8.90625 36.195312 -10.507812 40.6875 -13.71875 Z M 40.6875 -13.71875 "/></g></g></g><g fill="#1b1b1b" fill-opacity="1"><g transform="translate(250.065951, 257.926353)"><g><path d="M 224.90625 -59.484375 C 225.863281 -58.992188 226.34375 -58.109375 226.34375 -56.828125 C 226.34375 -56.179688 226.265625 -55.703125 226.109375 -55.390625 C 215.992188 -37.242188 205.476562 -23.472656 194.5625 -14.078125 C 183.644531 -4.691406 172.164062 0 160.125 0 C 154.664062 0 150.210938 -0.800781 146.765625 -2.40625 C 143.316406 -4.007812 140.945312 -6.097656 139.65625 -8.671875 C 138.21875 -11.398438 137.5 -14.445312 137.5 -17.8125 C 137.5 -23.914062 139.785156 -31.300781 144.359375 -39.96875 C 148.929688 -48.632812 155.632812 -58.828125 164.46875 -70.546875 C 168.632812 -75.847656 172.722656 -81.265625 176.734375 -86.796875 C 180.753906 -92.335938 184.289062 -98.320312 187.34375 -104.75 C 187.5 -105.070312 187.859375 -105.914062 188.421875 -107.28125 C 188.984375 -108.644531 189.265625 -109.96875 189.265625 -111.25 C 189.265625 -112.375 188.941406 -113.253906 188.296875 -113.890625 C 187.660156 -114.535156 186.976562 -114.9375 186.25 -115.09375 C 185.53125 -115.257812 184.769531 -115.34375 183.96875 -115.34375 C 183.644531 -115.34375 183.28125 -115.300781 182.875 -115.21875 C 182.476562 -115.132812 182.117188 -115.09375 181.796875 -115.09375 C 178.742188 -114.613281 175.613281 -113.570312 172.40625 -111.96875 C 169.195312 -110.363281 165.988281 -108.359375 162.78125 -105.953125 C 153.945312 -99.523438 146 -92.296875 138.9375 -84.265625 C 131.875 -76.242188 125.851562 -68.5 120.875 -61.03125 C 115.90625 -53.570312 112.054688 -47.4375 109.328125 -42.625 L 86.453125 -1.921875 L 66.703125 -1.921875 C 75.847656 -18.296875 83.269531 -31.617188 88.96875 -41.890625 C 94.664062 -52.171875 99.117188 -60.195312 102.328125 -65.96875 C 105.546875 -71.75 107.835938 -75.882812 109.203125 -78.375 C 110.566406 -80.863281 111.410156 -82.347656 111.734375 -82.828125 C 112.054688 -83.316406 112.21875 -83.5625 112.21875 -83.5625 C 114.945312 -88.21875 117.3125 -93.148438 119.3125 -98.359375 C 121.320312 -103.578125 122.328125 -107.710938 122.328125 -110.765625 C 122.328125 -112.046875 122.085938 -113.007812 121.609375 -113.65625 C 120.484375 -114.78125 119.035156 -115.34375 117.265625 -115.34375 C 116.941406 -115.34375 116.617188 -115.300781 116.296875 -115.21875 C 115.984375 -115.132812 115.664062 -115.09375 115.34375 -115.09375 C 112.289062 -114.613281 109.117188 -113.570312 105.828125 -111.96875 C 102.535156 -110.363281 99.285156 -108.359375 96.078125 -105.953125 C 87.890625 -100.015625 80.460938 -93.390625 73.796875 -86.078125 C 67.140625 -78.773438 61.320312 -71.59375 56.34375 -64.53125 C 51.363281 -57.46875 47.429688 -51.367188 44.546875 -46.234375 L 19.75 -1.921875 L 0 -1.921875 L 66.453125 -120.875 L 86.453125 -120.875 L 68.625 -89.09375 C 73.925781 -95.03125 79.460938 -100.523438 85.234375 -105.578125 C 91.015625 -110.640625 96.875 -114.773438 102.8125 -117.984375 C 108.757812 -121.203125 114.539062 -122.8125 120.15625 -122.8125 C 122.882812 -122.8125 125.453125 -122.488281 127.859375 -121.84375 C 130.265625 -121.195312 132.113281 -119.753906 133.40625 -117.515625 C 135.164062 -114.785156 136.046875 -111.570312 136.046875 -107.875 C 136.046875 -101.289062 133.238281 -91.898438 127.625 -79.703125 C 133.238281 -86.765625 139.335938 -93.585938 145.921875 -100.171875 C 152.503906 -106.753906 159.285156 -112.171875 166.265625 -116.421875 C 173.253906 -120.679688 180.117188 -122.8125 186.859375 -122.8125 C 189.585938 -122.8125 192.15625 -122.488281 194.5625 -121.84375 C 196.96875 -121.195312 198.816406 -119.753906 200.109375 -117.515625 C 201.546875 -115.421875 202.265625 -112.609375 202.265625 -109.078125 C 202.265625 -104.898438 200.898438 -99.398438 198.171875 -92.578125 C 195.441406 -85.765625 190.546875 -77.300781 183.484375 -67.1875 C 178.828125 -60.4375 173.929688 -53.410156 168.796875 -46.109375 C 163.660156 -38.804688 159.726562 -32.265625 157 -26.484375 C 155.070312 -22.472656 154.109375 -19.101562 154.109375 -16.375 C 154.109375 -13.320312 155.109375 -11.113281 157.109375 -9.75 C 159.117188 -8.382812 161.648438 -7.703125 164.703125 -7.703125 C 167.910156 -7.703125 171.5625 -8.460938 175.65625 -9.984375 C 179.75 -11.515625 183.722656 -13.804688 187.578125 -16.859375 C 193.203125 -21.191406 198.78125 -26.769531 204.3125 -33.59375 C 209.851562 -40.414062 215.351562 -48.640625 220.8125 -58.265625 C 221.289062 -59.390625 222.09375 -59.953125 223.21875 -59.953125 C 223.695312 -59.953125 224.257812 -59.796875 224.90625 -59.484375 Z M 224.90625 -59.484375 "/></g></g></g><g fill="#1b1b1b" fill-opacity="1"><g transform="translate(457.631913, 257.926353)"><g><path d="M 81.15625 -59.484375 C 82.113281 -58.835938 82.59375 -57.875 82.59375 -56.59375 C 82.59375 -55.945312 82.515625 -55.460938 82.359375 -55.140625 C 78.660156 -48.554688 74.722656 -42.015625 70.546875 -35.515625 C 66.378906 -29.015625 61.96875 -23.070312 57.3125 -17.6875 C 52.65625 -12.3125 47.757812 -8.019531 42.625 -4.8125 C 37.488281 -1.601562 32.03125 0 26.25 0 C 18.382812 0 12.082031 -2.003906 7.34375 -6.015625 C 2.601562 -10.035156 0.234375 -15.894531 0.234375 -23.59375 C 0.234375 -28.09375 1.113281 -33.191406 2.875 -38.890625 C 4.644531 -44.585938 7.457031 -50.890625 11.3125 -57.796875 L 46.46875 -120.875 L 66.21875 -120.875 L 32.03125 -59.484375 C 27.53125 -51.128906 23.957031 -43.898438 21.3125 -37.796875 C 18.664062 -31.703125 16.941406 -26.566406 16.140625 -22.390625 C 16.140625 -22.066406 16.097656 -21.703125 16.015625 -21.296875 C 15.929688 -20.898438 15.890625 -20.460938 15.890625 -19.984375 C 15.890625 -17.734375 16.53125 -15.285156 17.8125 -12.640625 C 19.101562 -9.992188 21.515625 -8.347656 25.046875 -7.703125 C 25.523438 -7.546875 26.328125 -7.46875 27.453125 -7.46875 C 30.179688 -7.46875 33.3125 -8.226562 36.84375 -9.75 C 40.375 -11.28125 44.226562 -14.050781 48.40625 -18.0625 C 53.375 -22.875 58.226562 -28.8125 62.96875 -35.875 C 67.707031 -42.9375 72.320312 -50.398438 76.8125 -58.265625 C 77.613281 -59.234375 78.578125 -59.71875 79.703125 -59.71875 C 80.347656 -59.71875 80.832031 -59.640625 81.15625 -59.484375 Z M 81.875 -145.4375 C 80.269531 -142.226562 78.222656 -139.578125 75.734375 -137.484375 C 73.242188 -135.398438 70.472656 -134.359375 67.421875 -134.359375 C 66.140625 -134.359375 64.859375 -134.601562 63.578125 -135.09375 C 59.722656 -136.695312 57.796875 -139.664062 57.796875 -144 C 57.796875 -146.40625 58.597656 -149.210938 60.203125 -152.421875 C 62.128906 -155.953125 64.492188 -158.679688 67.296875 -160.609375 C 70.109375 -162.535156 72.800781 -163.5 75.375 -163.5 C 76.65625 -163.5 77.773438 -163.257812 78.734375 -162.78125 C 82.429688 -161.332031 84.28125 -158.363281 84.28125 -153.875 C 84.28125 -150.976562 83.476562 -148.164062 81.875 -145.4375 Z M 81.875 -145.4375 "/></g></g></g><g fill="#1b1b1b" fill-opacity="1"><g transform="translate(502.179048, 257.926353)"><g><path d="M 158.6875 -59.484375 C 159.644531 -58.992188 160.125 -58.109375 160.125 -56.828125 C 160.125 -56.179688 160.046875 -55.703125 159.890625 -55.390625 C 149.617188 -37.242188 139.101562 -23.472656 128.34375 -14.078125 C 117.59375 -4.691406 106.195312 0 94.15625 0 C 88.695312 0 84.238281 -0.800781 80.78125 -2.40625 C 77.332031 -4.007812 74.96875 -6.097656 73.6875 -8.671875 C 72.238281 -11.398438 71.515625 -14.445312 71.515625 -17.8125 C 71.515625 -23.914062 73.800781 -31.34375 78.375 -40.09375 C 82.945312 -48.84375 89.648438 -58.992188 98.484375 -70.546875 L 101.140625 -73.921875 C 103.867188 -77.453125 106.914062 -81.503906 110.28125 -86.078125 C 113.65625 -90.660156 116.546875 -95.15625 118.953125 -99.5625 C 121.359375 -103.976562 122.5625 -107.710938 122.5625 -110.765625 C 122.5625 -113.816406 121.035156 -115.34375 117.984375 -115.34375 C 117.671875 -115.34375 117.3125 -115.300781 116.90625 -115.21875 C 116.507812 -115.132812 116.148438 -115.09375 115.828125 -115.09375 C 112.773438 -114.613281 109.640625 -113.570312 106.421875 -111.96875 C 103.210938 -110.363281 99.925781 -108.359375 96.5625 -105.953125 C 87.40625 -99.210938 79.132812 -91.625 71.75 -83.1875 C 64.375 -74.757812 58.15625 -66.691406 53.09375 -58.984375 C 48.039062 -51.285156 44.226562 -45.1875 41.65625 -40.6875 C 41.65625 -40.6875 41.492188 -40.40625 41.171875 -39.84375 C 40.847656 -39.289062 40.046875 -37.847656 38.765625 -35.515625 C 37.484375 -33.191406 35.359375 -29.421875 32.390625 -24.203125 C 29.421875 -18.984375 25.207031 -11.554688 19.75 -1.921875 L 0 -1.921875 L 66.453125 -120.875 L 86.453125 -120.875 L 67.65625 -87.171875 C 72.957031 -93.265625 78.578125 -99.039062 84.515625 -104.5 C 90.453125 -109.957031 96.507812 -114.375 102.6875 -117.75 C 108.875 -121.125 114.9375 -122.8125 120.875 -122.8125 C 123.445312 -122.8125 125.9375 -122.488281 128.34375 -121.84375 C 130.75 -121.195312 132.597656 -119.753906 133.890625 -117.515625 C 134.691406 -116.390625 135.289062 -115.144531 135.6875 -113.78125 C 136.09375 -112.414062 136.296875 -110.769531 136.296875 -108.84375 C 136.296875 -104.664062 134.929688 -99.164062 132.203125 -92.34375 C 129.472656 -85.519531 124.578125 -77.132812 117.515625 -67.1875 C 112.859375 -60.4375 107.957031 -53.410156 102.8125 -46.109375 C 97.675781 -38.804688 93.742188 -32.265625 91.015625 -26.484375 C 89.085938 -22.472656 88.125 -19.101562 88.125 -16.375 C 88.125 -13.320312 89.085938 -11.113281 91.015625 -9.75 C 92.941406 -8.382812 95.429688 -7.703125 98.484375 -7.703125 C 101.691406 -7.703125 105.300781 -8.460938 109.3125 -9.984375 C 113.332031 -11.515625 117.347656 -13.804688 121.359375 -16.859375 C 126.984375 -21.191406 132.5625 -26.769531 138.09375 -33.59375 C 143.632812 -40.414062 149.050781 -48.640625 154.34375 -58.265625 C 154.988281 -59.390625 155.875 -59.953125 157 -59.953125 C 157.476562 -59.953125 158.039062 -59.796875 158.6875 -59.484375 Z M 158.6875 -59.484375 "/></g></g></g><g fill="#1b1b1b" fill-opacity="1"><g transform="translate(642.322106, 257.926353)"><g><path d="M 129.0625 -59.484375 C 130.03125 -58.992188 130.515625 -58.109375 130.515625 -56.828125 C 130.515625 -56.179688 130.429688 -55.703125 130.265625 -55.390625 C 125.296875 -46.554688 119.316406 -39.289062 112.328125 -33.59375 C 105.347656 -27.894531 97.84375 -23.28125 89.8125 -19.75 C 81.789062 -16.21875 73.765625 -13.242188 65.734375 -10.828125 L 63.8125 -7.21875 C 61.40625 -2.882812 58.351562 2.207031 54.65625 8.0625 C 50.96875 13.925781 46.832031 19.945312 42.25 26.125 C 37.675781 32.300781 32.78125 38.078125 27.5625 43.453125 C 22.351562 48.835938 17.019531 53.175781 11.5625 56.46875 C 6.101562 59.757812 0.644531 61.40625 -4.8125 61.40625 C -5.9375 61.40625 -7.019531 61.285156 -8.0625 61.046875 C -9.101562 60.804688 -10.1875 60.601562 -11.3125 60.4375 C -17.257812 58.507812 -20.710938 54.5 -21.671875 48.40625 C -21.828125 47.757812 -21.90625 47.15625 -21.90625 46.59375 C -21.90625 46.03125 -21.90625 45.425781 -21.90625 44.78125 C -21.90625 39.644531 -19.9375 33.585938 -16 26.609375 C -12.070312 19.628906 -5.773438 12.847656 2.890625 6.265625 C 4.816406 4.816406 6.898438 3.488281 9.140625 2.28125 C 11.390625 1.082031 13.640625 -0.078125 15.890625 -1.203125 C 10.109375 -2.972656 6.015625 -6.265625 3.609375 -11.078125 C 1.203125 -15.890625 0 -21.023438 0 -26.484375 C 0 -27.453125 0.0351562 -28.375 0.109375 -29.25 C 0.191406 -30.132812 0.316406 -31.0625 0.484375 -32.03125 C 1.285156 -38.925781 3.128906 -46.265625 6.015625 -54.046875 C 8.910156 -61.835938 12.6875 -69.585938 17.34375 -77.296875 C 24.5625 -89.015625 31.5 -98.164062 38.15625 -104.75 C 44.820312 -111.332031 51.164062 -115.988281 57.1875 -118.71875 C 63.207031 -121.445312 68.707031 -122.8125 73.6875 -122.8125 C 75.769531 -122.8125 77.734375 -122.609375 79.578125 -122.203125 C 81.429688 -121.804688 83.160156 -121.285156 84.765625 -120.640625 C 88.128906 -119.359375 90.570312 -117.191406 92.09375 -114.140625 C 93.625 -111.085938 94.390625 -107.394531 94.390625 -103.0625 C 94.390625 -100.8125 94.148438 -98.320312 93.671875 -95.59375 L 107.640625 -120.640625 L 127.625 -120.640625 L 70.3125 -18.546875 C 80.90625 -22.078125 91.054688 -26.769531 100.765625 -32.625 C 110.484375 -38.488281 118.472656 -47.035156 124.734375 -58.265625 C 125.535156 -59.390625 126.5 -59.953125 127.625 -59.953125 C 127.945312 -59.953125 128.425781 -59.796875 129.0625 -59.484375 Z M 19.265625 -31.296875 C 18.785156 -28.734375 18.546875 -26.25 18.546875 -23.84375 C 18.546875 -18.863281 19.507812 -15.171875 21.4375 -12.765625 C 23.363281 -10.359375 25.847656 -9.15625 28.890625 -9.15625 C 32.265625 -9.15625 36.195312 -10.757812 40.6875 -13.96875 C 46.945312 -18.625 53.128906 -25.363281 59.234375 -34.1875 L 77.0625 -66.21875 C 80.425781 -73.28125 83.070312 -80.019531 85 -86.4375 C 86.925781 -92.863281 87.890625 -98.320312 87.890625 -102.8125 C 87.890625 -108.757812 86.285156 -112.613281 83.078125 -114.375 C 81.953125 -115.019531 80.585938 -115.34375 78.984375 -115.34375 C 75.128906 -115.34375 70.710938 -113.414062 65.734375 -109.5625 C 60.753906 -105.707031 55.738281 -100.609375 50.6875 -94.265625 C 45.632812 -87.929688 40.9375 -81.148438 36.59375 -73.921875 C 32.257812 -66.535156 28.523438 -59.191406 25.390625 -51.890625 C 22.265625 -44.585938 20.222656 -37.722656 19.265625 -31.296875 Z M -9.625 54.421875 C -8.1875 54.898438 -6.742188 55.140625 -5.296875 55.140625 C 1.765625 55.140625 8.867188 49.921875 16.015625 39.484375 C 23.160156 29.054688 31.945312 14.53125 42.375 -4.09375 C 35.632812 -2.164062 29.210938 -0.0390625 23.109375 2.28125 C 17.015625 4.613281 11.476562 7.625 6.5 11.3125 C -1.363281 17.09375 -7.0625 23.070312 -10.59375 29.25 C -14.125 35.4375 -15.890625 40.695312 -15.890625 45.03125 C -15.890625 46.15625 -15.8125 46.957031 -15.65625 47.4375 C -14.851562 51.125 -12.84375 53.453125 -9.625 54.421875 Z M -9.625 54.421875 "/></g></g></g></g></g></svg>