<svg xmlns="http://www.w3.org/2000/svg" xmlns:xlink="http://www.w3.org/1999/xlink" width="2000" zoomAndPan="magnify" viewBox="0 0 1500 1499.999933" height="2000" preserveAspectRatio="xMidYMid meet" version="1.0"><defs><clipPath id="0b3c2a8bc3"><path d="M 132.90625 260.953125 L 1367.40625 260.953125 L 1367.40625 1238.953125 L 132.90625 1238.953125 Z M 132.90625 260.953125 " clip-rule="nonzero"/></clipPath></defs><rect x="-150" width="1800" fill="#ffffff" y="-149.999993" height="1799.99992" fill-opacity="1"/><rect x="-150" width="1800" fill="#e4e809" y="-149.999993" height="1799.99992" fill-opacity="1"/><g clip-path="url(#0b3c2a8bc3)"><path fill="#000000" d="M 558.773438 260.949219 C 557.519531 260.921875 556.269531 260.933594 555.015625 260.976562 C 553.761719 261.023438 552.511719 261.109375 551.265625 261.226562 C 550.015625 261.347656 548.773438 261.503906 547.535156 261.695312 C 546.296875 261.886719 545.0625 262.117188 543.839844 262.378906 C 542.613281 262.644531 541.398438 262.945312 540.191406 263.28125 C 538.980469 263.617188 537.785156 263.984375 536.597656 264.390625 C 535.414062 264.796875 534.238281 265.238281 533.078125 265.710938 C 531.917969 266.183594 530.773438 266.691406 529.644531 267.234375 C 528.511719 267.773438 527.398438 268.347656 526.300781 268.953125 C 525.203125 269.558594 524.125 270.195312 523.066406 270.867188 C 522.007812 271.535156 520.96875 272.234375 519.949219 272.964844 C 518.929688 273.695312 517.933594 274.453125 516.957031 275.242188 C 515.984375 276.03125 515.035156 276.847656 514.105469 277.691406 C 513.179688 278.535156 512.277344 279.402344 511.402344 280.300781 C 510.527344 281.195312 509.679688 282.117188 508.855469 283.0625 C 508.035156 284.007812 507.242188 284.980469 506.476562 285.972656 C 505.710938 286.964844 504.972656 287.976562 504.269531 289.011719 C 503.5625 290.046875 502.886719 291.101562 502.242188 292.179688 C 501.597656 293.253906 500.988281 294.347656 500.40625 295.457031 C 499.828125 296.566406 499.277344 297.695312 498.765625 298.835938 C 498.25 299.980469 497.769531 301.136719 497.324219 302.308594 C 496.875 303.476562 496.464844 304.660156 496.085938 305.855469 C 495.710938 307.050781 495.367188 308.253906 495.058594 309.46875 C 494.753906 310.683594 494.480469 311.90625 494.246094 313.136719 C 494.011719 314.367188 493.8125 315.605469 493.648438 316.847656 C 493.484375 318.089844 493.359375 319.335938 493.269531 320.585938 C 493.175781 321.835938 493.125 323.085938 493.105469 324.339844 C 493.089844 325.59375 493.109375 326.84375 493.164062 328.097656 C 493.222656 329.347656 493.3125 330.597656 493.445312 331.84375 C 493.574219 333.089844 493.738281 334.332031 493.941406 335.570312 C 494.140625 336.804688 494.378906 338.035156 494.652344 339.257812 C 494.925781 340.480469 495.238281 341.695312 495.582031 342.898438 L 520.699219 435.996094 C 402.070312 474.324219 307.332031 565.128906 263.109375 680.945312 C 188.085938 702.65625 132.90625 771.085938 132.90625 853.082031 C 132.90625 944.59375 201.496094 1019.332031 289.933594 1030.742188 C 360.785156 1154.839844 494.125 1238.730469 647.28125 1238.730469 L 853.03125 1238.730469 C 1006.191406 1238.730469 1139.527344 1154.839844 1210.382812 1030.742188 C 1298.820312 1019.332031 1367.40625 944.59375 1367.40625 853.082031 C 1367.40625 771.085938 1312.226562 702.65625 1237.207031 680.945312 C 1192.984375 565.128906 1098.246094 474.324219 979.617188 435.996094 L 1004.832031 342.898438 C 1005.183594 341.675781 1005.496094 340.445312 1005.769531 339.203125 C 1006.046875 337.960938 1006.285156 336.714844 1006.488281 335.460938 C 1006.691406 334.203125 1006.855469 332.945312 1006.980469 331.679688 C 1007.109375 330.414062 1007.199219 329.144531 1007.25 327.875 C 1007.300781 326.605469 1007.316406 325.335938 1007.292969 324.0625 C 1007.269531 322.792969 1007.207031 321.523438 1007.109375 320.253906 C 1007.011719 318.988281 1006.875 317.722656 1006.699219 316.464844 C 1006.527344 315.207031 1006.316406 313.953125 1006.066406 312.707031 C 1005.820312 311.457031 1005.535156 310.21875 1005.210938 308.988281 C 1004.890625 307.761719 1004.53125 306.539062 1004.136719 305.332031 C 1003.742188 304.121094 1003.3125 302.925781 1002.847656 301.742188 C 1002.382812 300.558594 1001.882812 299.390625 1001.351562 298.238281 C 1000.816406 297.085938 1000.246094 295.949219 999.644531 294.828125 C 999.042969 293.707031 998.410156 292.605469 997.742188 291.523438 C 997.074219 290.441406 996.375 289.378906 995.644531 288.339844 C 994.914062 287.296875 994.152344 286.28125 993.363281 285.285156 C 992.574219 284.289062 991.753906 283.316406 990.90625 282.371094 C 990.054688 281.421875 989.179688 280.503906 988.277344 279.605469 C 987.375 278.710938 986.445312 277.84375 985.492188 277.003906 C 984.535156 276.164062 983.558594 275.351562 982.554688 274.570312 C 981.550781 273.789062 980.527344 273.035156 979.480469 272.316406 C 978.433594 271.59375 977.363281 270.90625 976.277344 270.246094 C 975.1875 269.589844 974.082031 268.964844 972.957031 268.371094 C 971.832031 267.78125 970.6875 267.222656 969.53125 266.695312 C 968.371094 266.171875 967.199219 265.683594 966.011719 265.226562 C 964.824219 264.773438 963.621094 264.351562 962.410156 263.96875 C 961.199219 263.585938 959.976562 263.238281 958.742188 262.925781 C 957.507812 262.617188 956.265625 262.339844 955.019531 262.101562 C 953.769531 261.867188 952.511719 261.664062 951.253906 261.503906 C 949.992188 261.339844 948.726562 261.214844 947.457031 261.125 C 946.1875 261.039062 944.917969 260.988281 943.644531 260.972656 C 942.375 260.960938 941.101562 260.984375 939.832031 261.050781 C 938.132812 261.132812 936.4375 261.289062 934.75 261.507812 C 933.058594 261.726562 931.382812 262.015625 929.714844 262.367188 C 928.050781 262.722656 926.402344 263.140625 924.769531 263.625 C 923.136719 264.109375 921.523438 264.660156 919.933594 265.269531 C 918.347656 265.882812 916.785156 266.558594 915.25 267.292969 C 913.714844 268.03125 912.210938 268.828125 910.738281 269.683594 C 909.265625 270.539062 907.828125 271.453125 906.429688 272.421875 C 905.03125 273.390625 903.671875 274.417969 902.351562 275.492188 C 901.035156 276.570312 899.761719 277.699219 898.53125 278.878906 C 897.304688 280.058594 896.125 281.285156 894.992188 282.558594 C 893.863281 283.832031 892.78125 285.144531 891.757812 286.503906 C 890.730469 287.863281 889.757812 289.261719 888.84375 290.695312 C 887.929688 292.132812 887.070312 293.601562 886.273438 295.105469 C 885.472656 296.609375 884.734375 298.140625 884.058594 299.703125 C 883.382812 301.265625 882.769531 302.851562 882.21875 304.464844 C 881.667969 306.074219 881.179688 307.707031 880.761719 309.355469 L 851.828125 416.011719 L 648.589844 416.011719 L 619.65625 309.355469 C 619.226562 307.667969 618.726562 306 618.164062 304.355469 C 617.597656 302.707031 616.964844 301.085938 616.269531 299.492188 C 615.574219 297.898438 614.8125 296.332031 613.988281 294.796875 C 613.164062 293.265625 612.28125 291.765625 611.335938 290.304688 C 610.386719 288.84375 609.386719 287.421875 608.324219 286.042969 C 607.261719 284.660156 606.148438 283.328125 604.976562 282.039062 C 603.808594 280.746094 602.585938 279.507812 601.316406 278.316406 C 600.046875 277.125 598.730469 275.988281 597.367188 274.90625 C 596.003906 273.820312 594.597656 272.796875 593.152344 271.824219 C 591.707031 270.855469 590.222656 269.945312 588.703125 269.097656 C 587.183594 268.25 585.628906 267.460938 584.046875 266.738281 C 582.460938 266.015625 580.851562 265.359375 579.214844 264.765625 C 577.578125 264.175781 575.917969 263.648438 574.238281 263.191406 C 572.558594 262.734375 570.859375 262.34375 569.148438 262.027344 C 567.4375 261.707031 565.714844 261.457031 563.984375 261.277344 C 562.25 261.097656 560.515625 260.988281 558.773438 260.949219 Z M 647.28125 544.5625 L 853.03125 544.5625 C 1009.042969 544.5625 1135.9375 671.414062 1135.9375 827.371094 C 1135.9375 983.328125 1009.042969 1110.183594 853.03125 1110.183594 L 647.28125 1110.183594 C 491.273438 1110.183594 364.375 983.328125 364.375 827.371094 C 364.375 671.414062 491.273438 544.5625 647.28125 544.5625 Z M 647.28125 621.691406 C 533.8125 621.691406 441.53125 713.9375 441.53125 827.371094 C 441.53125 940.804688 533.8125 1033.050781 647.28125 1033.050781 L 853.03125 1033.050781 C 966.503906 1033.050781 1058.78125 940.804688 1058.78125 827.371094 C 1058.78125 713.9375 966.503906 621.691406 853.03125 621.691406 Z M 595.84375 775.953125 C 624.238281 775.953125 647.28125 798.988281 647.28125 827.371094 C 647.28125 855.753906 624.238281 878.792969 595.84375 878.792969 C 567.453125 878.792969 544.40625 855.753906 544.40625 827.371094 C 544.40625 798.988281 567.453125 775.953125 595.84375 775.953125 Z M 904.46875 775.953125 C 932.863281 775.953125 955.90625 798.988281 955.90625 827.371094 C 955.90625 855.753906 932.863281 878.792969 904.46875 878.792969 C 876.078125 878.792969 853.03125 855.753906 853.03125 827.371094 C 853.03125 798.988281 876.078125 775.953125 904.46875 775.953125 Z M 904.46875 775.953125 " fill-opacity="1" fill-rule="nonzero"/></g></svg>