<svg xmlns="http://www.w3.org/2000/svg" xmlns:xlink="http://www.w3.org/1999/xlink" width="2371" zoomAndPan="magnify" viewBox="0 0 1778.25 618.749987" height="825" preserveAspectRatio="xMidYMid meet" version="1.0"><defs><g/><clipPath id="6c550f4f76"><rect x="0" width="723" y="0" height="194"/></clipPath><clipPath id="ed607b7188"><rect x="0" width="776" y="0" height="483"/></clipPath></defs><g transform="matrix(1, 0, 0, 1, 935, 166)"><g clip-path="url(#6c550f4f76)"><g fill="#1b1b1b" fill-opacity="1"><g transform="translate(0.130011, 153.882763)"><g><path d="M 66.125 3.203125 C 57.96875 3.203125 50.414062 1.660156 43.46875 -1.421875 C 36.53125 -4.515625 30.453125 -8.78125 25.234375 -14.21875 C 20.015625 -19.65625 15.953125 -25.953125 13.046875 -33.109375 C 10.148438 -40.273438 8.703125 -47.972656 8.703125 -56.203125 C 8.703125 -64.429688 10.148438 -72.125 13.046875 -79.28125 C 15.953125 -86.445312 20.015625 -92.75 25.234375 -98.1875 C 30.453125 -103.625 36.53125 -107.882812 43.46875 -110.96875 C 50.414062 -114.0625 57.96875 -115.609375 66.125 -115.609375 C 75.082031 -115.609375 83.195312 -113.878906 90.46875 -110.421875 C 97.75 -106.972656 103.941406 -102.253906 109.046875 -96.265625 C 114.148438 -90.273438 117.804688 -83.390625 120.015625 -75.609375 L 100.515625 -75.609375 C 97.566406 -82.878906 93.023438 -88.382812 86.890625 -92.125 C 80.765625 -95.875 73.878906 -97.75 66.234375 -97.75 C 61.304688 -97.75 56.546875 -96.789062 51.953125 -94.875 C 47.367188 -92.96875 43.238281 -90.210938 39.5625 -86.609375 C 35.882812 -83.015625 32.976562 -78.644531 30.84375 -73.5 C 28.71875 -68.363281 27.65625 -62.597656 27.65625 -56.203125 C 27.65625 -49.734375 28.738281 -43.925781 30.90625 -38.78125 C 33.070312 -33.644531 35.992188 -29.273438 39.671875 -25.671875 C 43.347656 -22.078125 47.476562 -19.320312 52.0625 -17.40625 C 56.65625 -15.5 61.378906 -14.546875 66.234375 -14.546875 C 73.796875 -14.546875 80.660156 -16.472656 86.828125 -20.328125 C 93.003906 -24.191406 97.566406 -29.976562 100.515625 -37.6875 L 119.90625 -37.6875 C 117.769531 -29.601562 114.164062 -22.492188 109.09375 -16.359375 C 104.03125 -10.222656 97.820312 -5.425781 90.46875 -1.96875 C 83.125 1.476562 75.007812 3.203125 66.125 3.203125 Z M 66.125 3.203125 "/></g></g></g><g fill="#1b1b1b" fill-opacity="1"><g transform="translate(113.647376, 153.882763)"><g><path d="M 67.109375 3.203125 C 58.804688 3.203125 51.109375 1.675781 44.015625 -1.375 C 36.929688 -4.425781 30.742188 -8.671875 25.453125 -14.109375 C 20.160156 -19.546875 16.046875 -25.863281 13.109375 -33.0625 C 10.171875 -40.257812 8.703125 -47.972656 8.703125 -56.203125 C 8.703125 -64.429688 10.171875 -72.125 13.109375 -79.28125 C 16.046875 -86.445312 20.140625 -92.75 25.390625 -98.1875 C 30.648438 -103.625 36.820312 -107.882812 43.90625 -110.96875 C 51 -114.0625 58.734375 -115.609375 67.109375 -115.609375 C 75.484375 -115.609375 83.234375 -114.082031 90.359375 -111.03125 C 97.492188 -107.976562 103.703125 -103.734375 108.984375 -98.296875 C 114.273438 -92.867188 118.390625 -86.550781 121.328125 -79.34375 C 124.273438 -72.144531 125.75 -64.429688 125.75 -56.203125 C 125.75 -47.972656 124.273438 -40.257812 121.328125 -33.0625 C 118.390625 -25.863281 114.273438 -19.546875 108.984375 -14.109375 C 103.703125 -8.671875 97.492188 -4.425781 90.359375 -1.375 C 83.234375 1.675781 75.484375 3.203125 67.109375 3.203125 Z M 67.34375 -14.65625 C 72.925781 -14.65625 78.101562 -15.679688 82.875 -17.734375 C 87.644531 -19.796875 91.832031 -22.695312 95.4375 -26.4375 C 99.039062 -30.1875 101.832031 -34.597656 103.8125 -39.671875 C 105.800781 -44.742188 106.796875 -50.253906 106.796875 -56.203125 C 106.796875 -62.148438 105.800781 -67.640625 103.8125 -72.671875 C 101.832031 -77.710938 99.039062 -82.101562 95.4375 -85.84375 C 91.832031 -89.59375 87.644531 -92.515625 82.875 -94.609375 C 78.101562 -96.703125 72.925781 -97.75 67.34375 -97.75 C 61.75 -97.75 56.546875 -96.703125 51.734375 -94.609375 C 46.929688 -92.515625 42.726562 -89.59375 39.125 -85.84375 C 35.519531 -82.101562 32.707031 -77.710938 30.6875 -72.671875 C 28.664062 -67.640625 27.65625 -62.148438 27.65625 -56.203125 C 27.65625 -50.253906 28.664062 -44.742188 30.6875 -39.671875 C 32.707031 -34.597656 35.519531 -30.1875 39.125 -26.4375 C 42.726562 -22.695312 46.929688 -19.796875 51.734375 -17.734375 C 56.546875 -15.679688 61.75 -14.65625 67.34375 -14.65625 Z M 67.34375 -14.65625 "/></g></g></g><g fill="#1b1b1b" fill-opacity="1"><g transform="translate(234.548057, 153.882763)"><g><path d="M 37.140625 0 L 18.1875 0 L 18.1875 -112.40625 L 36.375 -112.40625 L 36.375 -90.703125 C 38.5 -95.546875 41.597656 -99.84375 45.671875 -103.59375 C 49.753906 -107.34375 54.550781 -110.28125 60.0625 -112.40625 C 65.570312 -114.539062 71.488281 -115.609375 77.8125 -115.609375 C 92.71875 -115.609375 104.03125 -110.992188 111.75 -101.765625 C 119.46875 -92.546875 123.328125 -78.9375 123.328125 -60.9375 L 123.328125 0 L 104.359375 0 L 104.359375 -60.609375 C 104.359375 -73.546875 101.566406 -82.988281 95.984375 -88.9375 C 90.398438 -94.882812 82.722656 -97.859375 72.953125 -97.859375 C 68.253906 -97.859375 63.753906 -96.976562 59.453125 -95.21875 C 55.160156 -93.457031 51.34375 -90.882812 48 -87.5 C 44.65625 -84.125 42.007812 -80.046875 40.0625 -75.265625 C 38.113281 -70.492188 37.140625 -65.097656 37.140625 -59.078125 Z M 37.140625 0 "/></g></g></g><g fill="#1b1b1b" fill-opacity="1"><g transform="translate(358.09341, 153.882763)"><g><path d="M 82.328125 0 L 61.609375 0 C 57.347656 0 53.125 -0.550781 48.9375 -1.65625 C 44.75 -2.757812 40.945312 -4.78125 37.53125 -7.71875 C 34.113281 -10.65625 31.375 -14.859375 29.3125 -20.328125 C 27.257812 -25.804688 26.234375 -32.914062 26.234375 -41.65625 L 26.234375 -95.765625 L 1.21875 -95.765625 L 1.21875 -112.40625 L 26.234375 -112.40625 L 26.234375 -145.796875 L 45.1875 -145.90625 L 45.1875 -112.40625 L 82.328125 -112.40625 L 82.328125 -95.765625 L 45.1875 -95.765625 L 45.1875 -40.78125 C 45.1875 -35.5625 45.753906 -31.316406 46.890625 -28.046875 C 48.023438 -24.773438 49.566406 -22.273438 51.515625 -20.546875 C 53.460938 -18.828125 55.628906 -17.65625 58.015625 -17.03125 C 60.410156 -16.40625 62.859375 -16.09375 65.359375 -16.09375 L 82.328125 -16.09375 Z M 82.328125 0 "/></g></g></g><g fill="#1b1b1b" fill-opacity="1"><g transform="translate(429.624823, 153.882763)"><g><path d="M 121.453125 -58.953125 C 121.453125 -58.003906 121.429688 -56.992188 121.390625 -55.921875 C 121.359375 -54.859375 121.265625 -53.300781 121.109375 -51.25 L 27.875 -51.25 C 28.6875 -43.75 30.890625 -37.242188 34.484375 -31.734375 C 38.085938 -26.222656 42.609375 -21.976562 48.046875 -19 C 53.484375 -16.03125 59.289062 -14.546875 65.46875 -14.546875 C 73.03125 -14.546875 79.492188 -16.179688 84.859375 -19.453125 C 90.222656 -22.722656 94.15625 -27.515625 96.65625 -33.828125 L 117.921875 -33.828125 C 116.304688 -28.691406 113.898438 -23.878906 110.703125 -19.390625 C 107.503906 -14.910156 103.644531 -11 99.125 -7.65625 C 94.613281 -4.3125 89.546875 -1.6875 83.921875 0.21875 C 78.296875 2.125 72.289062 3.078125 65.90625 3.078125 C 57.75 3.078125 50.195312 1.554688 43.25 -1.484375 C 36.3125 -4.535156 30.25 -8.78125 25.0625 -14.21875 C 19.882812 -19.65625 15.863281 -25.953125 13 -33.109375 C 10.132812 -40.273438 8.703125 -47.972656 8.703125 -56.203125 C 8.703125 -64.429688 10.132812 -72.125 13 -79.28125 C 15.863281 -86.445312 19.882812 -92.75 25.0625 -98.1875 C 30.25 -103.625 36.3125 -107.882812 43.25 -110.96875 C 50.195312 -114.0625 57.75 -115.609375 65.90625 -115.609375 C 73.988281 -115.609375 81.425781 -114.097656 88.21875 -111.078125 C 95.019531 -108.066406 100.898438 -103.914062 105.859375 -98.625 C 110.816406 -93.34375 114.65625 -87.300781 117.375 -80.5 C 120.09375 -73.707031 121.453125 -66.523438 121.453125 -58.953125 Z M 28.765625 -68 L 102.046875 -68 C 101.753906 -71.96875 100.597656 -75.75 98.578125 -79.34375 C 96.554688 -82.945312 93.890625 -86.125 90.578125 -88.875 C 87.273438 -91.632812 83.472656 -93.800781 79.171875 -95.375 C 74.878906 -96.957031 70.347656 -97.75 65.578125 -97.75 C 59.992188 -97.75 54.664062 -96.609375 49.59375 -94.328125 C 44.519531 -92.054688 40.144531 -88.71875 36.46875 -84.3125 C 32.800781 -79.90625 30.234375 -74.46875 28.765625 -68 Z M 28.765625 -68 "/></g></g></g><g fill="#1b1b1b" fill-opacity="1"><g transform="translate(544.46456, 153.882763)"><g><path d="M 55.65625 3.203125 C 47.789062 3.203125 40.921875 2.15625 35.046875 0.0625 C 29.171875 -2.03125 24.285156 -4.859375 20.390625 -8.421875 C 16.492188 -11.992188 13.570312 -16.035156 11.625 -20.546875 C 9.675781 -25.066406 8.703125 -29.71875 8.703125 -34.5 L 27 -34.390625 C 27.070312 -30.347656 28.226562 -26.632812 30.46875 -23.25 C 32.707031 -19.875 35.957031 -17.191406 40.21875 -15.203125 C 44.488281 -13.222656 49.707031 -12.234375 55.875 -12.234375 C 64.394531 -12.234375 70.820312 -13.90625 75.15625 -17.25 C 79.488281 -20.59375 81.65625 -25.09375 81.65625 -30.75 C 81.65625 -34.9375 80.515625 -38.222656 78.234375 -40.609375 C 75.960938 -42.992188 72.710938 -44.828125 68.484375 -46.109375 C 64.265625 -47.398438 59.21875 -48.523438 53.34375 -49.484375 C 48.125 -50.285156 43.144531 -51.40625 38.40625 -52.84375 C 33.664062 -54.28125 29.457031 -56.242188 25.78125 -58.734375 C 22.113281 -61.234375 19.234375 -64.429688 17.140625 -68.328125 C 15.046875 -72.222656 14 -77 14 -82.65625 C 14 -88.820312 15.484375 -94.382812 18.453125 -99.34375 C 21.429688 -104.3125 25.914062 -108.265625 31.90625 -111.203125 C 37.894531 -114.140625 45.332031 -115.609375 54.21875 -115.609375 C 62.882812 -115.609375 70.453125 -114.15625 76.921875 -111.25 C 83.390625 -108.351562 88.421875 -104.367188 92.015625 -99.296875 C 95.617188 -94.222656 97.421875 -88.421875 97.421875 -81.890625 L 78.796875 -81.890625 C 78.503906 -87.242188 76.207031 -91.554688 71.90625 -94.828125 C 67.613281 -98.097656 61.71875 -99.734375 54.21875 -99.734375 C 49.375 -99.734375 45.367188 -98.976562 42.203125 -97.46875 C 39.046875 -95.96875 36.675781 -93.945312 35.09375 -91.40625 C 33.519531 -88.875 32.734375 -86.101562 32.734375 -83.09375 C 32.734375 -79.570312 33.519531 -76.671875 35.09375 -74.390625 C 36.675781 -72.109375 39.429688 -70.25 43.359375 -68.8125 C 47.296875 -67.382812 52.753906 -66.082031 59.734375 -64.90625 C 64.878906 -64.101562 69.910156 -63.054688 74.828125 -61.765625 C 79.753906 -60.484375 84.179688 -58.664062 88.109375 -56.3125 C 92.035156 -53.957031 95.15625 -50.796875 97.46875 -46.828125 C 99.789062 -42.867188 100.953125 -37.835938 100.953125 -31.734375 C 100.953125 -24.097656 99.039062 -17.671875 95.21875 -12.453125 C 91.394531 -7.234375 86.082031 -3.316406 79.28125 -0.703125 C 72.488281 1.898438 64.613281 3.203125 55.65625 3.203125 Z M 55.65625 3.203125 "/></g></g></g><g fill="#1b1b1b" fill-opacity="1"><g transform="translate(639.57872, 153.882763)"><g><path d="M 82.328125 0 L 61.609375 0 C 57.347656 0 53.125 -0.550781 48.9375 -1.65625 C 44.75 -2.757812 40.945312 -4.78125 37.53125 -7.71875 C 34.113281 -10.65625 31.375 -14.859375 29.3125 -20.328125 C 27.257812 -25.804688 26.234375 -32.914062 26.234375 -41.65625 L 26.234375 -95.765625 L 1.21875 -95.765625 L 1.21875 -112.40625 L 26.234375 -112.40625 L 26.234375 -145.796875 L 45.1875 -145.90625 L 45.1875 -112.40625 L 82.328125 -112.40625 L 82.328125 -95.765625 L 45.1875 -95.765625 L 45.1875 -40.78125 C 45.1875 -35.5625 45.753906 -31.316406 46.890625 -28.046875 C 48.023438 -24.773438 49.566406 -22.273438 51.515625 -20.546875 C 53.460938 -18.828125 55.628906 -17.65625 58.015625 -17.03125 C 60.410156 -16.40625 62.859375 -16.09375 65.359375 -16.09375 L 82.328125 -16.09375 Z M 82.328125 0 "/></g></g></g></g></g><g transform="matrix(1, 0, 0, 1, 164, 67)"><g clip-path="url(#ed607b7188)"><g fill="#1b1b1b" fill-opacity="1"><g transform="translate(1.012601, 258.228322)"><g><path d="M 158.609375 -59.453125 C 159.578125 -58.972656 160.0625 -58.085938 160.0625 -56.796875 C 160.0625 -56.160156 159.976562 -55.679688 159.8125 -55.359375 C 149.539062 -37.222656 139.03125 -23.460938 128.28125 -14.078125 C 117.53125 -4.691406 106.140625 0 94.109375 0 C 88.648438 0 84.195312 -0.800781 80.75 -2.40625 C 77.300781 -4.007812 74.9375 -6.097656 73.65625 -8.671875 C 72.207031 -11.390625 71.484375 -14.4375 71.484375 -17.8125 C 71.484375 -23.90625 73.769531 -31.320312 78.34375 -40.0625 C 82.914062 -48.8125 89.613281 -58.960938 98.4375 -70.515625 L 101.09375 -73.890625 C 103.820312 -77.421875 106.867188 -81.472656 110.234375 -86.046875 C 113.609375 -90.617188 116.5 -95.109375 118.90625 -99.515625 C 121.3125 -103.929688 122.515625 -107.664062 122.515625 -110.71875 C 122.515625 -113.769531 120.988281 -115.296875 117.9375 -115.296875 C 117.613281 -115.296875 117.25 -115.253906 116.84375 -115.171875 C 116.445312 -115.085938 116.085938 -115.046875 115.765625 -115.046875 C 112.722656 -114.566406 109.59375 -113.523438 106.375 -111.921875 C 103.164062 -110.316406 99.878906 -108.3125 96.515625 -105.90625 C 87.367188 -99.164062 79.101562 -91.582031 71.71875 -83.15625 C 64.34375 -74.726562 58.125 -66.664062 53.0625 -58.96875 C 48.007812 -51.269531 44.203125 -45.171875 41.640625 -40.671875 C 41.640625 -40.671875 41.476562 -40.390625 41.15625 -39.828125 C 40.832031 -39.265625 40.03125 -37.820312 38.75 -35.5 C 37.46875 -33.175781 35.34375 -29.40625 32.375 -24.1875 C 29.40625 -18.96875 25.191406 -11.546875 19.734375 -1.921875 L 0 -1.921875 L 66.4375 -120.828125 L 86.40625 -120.828125 L 67.640625 -87.125 C 72.929688 -93.226562 78.546875 -99.003906 84.484375 -104.453125 C 90.421875 -109.910156 96.476562 -114.320312 102.65625 -117.6875 C 108.832031 -121.0625 114.890625 -122.75 120.828125 -122.75 C 123.390625 -122.75 125.875 -122.425781 128.28125 -121.78125 C 130.6875 -121.144531 132.535156 -119.703125 133.828125 -117.453125 C 134.628906 -116.328125 135.226562 -115.082031 135.625 -113.71875 C 136.03125 -112.351562 136.234375 -110.710938 136.234375 -108.796875 C 136.234375 -104.617188 134.867188 -99.117188 132.140625 -92.296875 C 129.410156 -85.484375 124.515625 -77.101562 117.453125 -67.15625 C 112.796875 -60.414062 107.898438 -53.394531 102.765625 -46.09375 C 97.640625 -38.789062 93.710938 -32.25 90.984375 -26.46875 C 89.054688 -22.457031 88.09375 -19.085938 88.09375 -16.359375 C 88.09375 -13.316406 89.054688 -11.113281 90.984375 -9.75 C 92.910156 -8.382812 95.394531 -7.703125 98.4375 -7.703125 C 101.644531 -7.703125 105.253906 -8.460938 109.265625 -9.984375 C 113.285156 -11.515625 117.300781 -13.800781 121.3125 -16.84375 C 126.925781 -21.175781 132.5 -26.753906 138.03125 -33.578125 C 143.570312 -40.398438 148.988281 -48.625 154.28125 -58.25 C 154.925781 -59.375 155.804688 -59.9375 156.921875 -59.9375 C 157.410156 -59.9375 157.972656 -59.773438 158.609375 -59.453125 Z M 158.609375 -59.453125 "/></g></g></g><g fill="#1b1b1b" fill-opacity="1"><g transform="translate(145.910531, 258.228322)"><g><path d="M 142.96875 -59.203125 C 143.925781 -58.722656 144.40625 -57.84375 144.40625 -56.5625 C 144.40625 -55.914062 144.328125 -55.4375 144.171875 -55.125 C 139.191406 -46.289062 133.851562 -37.617188 128.15625 -29.109375 C 122.46875 -20.609375 116.253906 -13.628906 109.515625 -8.171875 C 102.773438 -2.722656 95.394531 0 87.375 0 C 79.507812 0 73.25 -1.960938 68.59375 -5.890625 C 63.9375 -9.828125 61.609375 -15.484375 61.609375 -22.859375 C 61.609375 -23.503906 61.609375 -24.1875 61.609375 -24.90625 C 61.609375 -25.632812 61.691406 -26.316406 61.859375 -26.953125 C 55.753906 -18.609375 49.492188 -12.066406 43.078125 -7.328125 C 36.660156 -2.597656 30.40625 -0.15625 24.3125 0 L 23.34375 0 C 17.570312 0 12.957031 -1.320312 9.5 -3.96875 C 6.050781 -6.613281 3.601562 -9.941406 2.15625 -13.953125 C 0.71875 -17.972656 0 -22.144531 0 -26.46875 C 0 -27.4375 0 -28.359375 0 -29.234375 C 0 -30.117188 0.078125 -30.960938 0.234375 -31.765625 C 1.203125 -38.671875 3.128906 -46.050781 6.015625 -53.90625 C 8.898438 -61.769531 12.671875 -69.472656 17.328125 -77.015625 C 24.546875 -88.734375 31.523438 -97.921875 38.265625 -104.578125 C 45.003906 -111.234375 51.382812 -115.925781 57.40625 -118.65625 C 63.425781 -121.382812 68.921875 -122.75 73.890625 -122.75 C 75.972656 -122.75 77.894531 -122.546875 79.65625 -122.140625 C 81.425781 -121.742188 83.113281 -121.222656 84.71875 -120.578125 C 88.09375 -119.296875 90.539062 -117.171875 92.0625 -114.203125 C 93.582031 -111.234375 94.34375 -107.664062 94.34375 -103.5 C 94.34375 -102.050781 94.265625 -100.5625 94.109375 -99.03125 C 93.953125 -97.507812 93.710938 -95.867188 93.390625 -94.109375 L 108.3125 -120.828125 L 128.28125 -120.828125 L 93.875 -59.453125 C 88.738281 -50.304688 85.003906 -42.84375 82.671875 -37.0625 C 80.347656 -31.289062 78.785156 -26.316406 77.984375 -22.140625 C 77.984375 -21.816406 77.941406 -21.453125 77.859375 -21.046875 C 77.773438 -20.648438 77.734375 -20.210938 77.734375 -19.734375 C 77.734375 -17.484375 78.375 -15.078125 79.65625 -12.515625 C 80.945312 -9.953125 83.359375 -8.269531 86.890625 -7.46875 C 87.367188 -7.300781 87.847656 -7.21875 88.328125 -7.21875 C 88.804688 -7.21875 89.289062 -7.21875 89.78125 -7.21875 C 92.507812 -7.21875 95.597656 -8.019531 99.046875 -9.625 C 102.492188 -11.226562 106.222656 -13.957031 110.234375 -17.8125 C 115.210938 -22.625 120.066406 -28.5625 124.796875 -35.625 C 129.523438 -42.6875 134.140625 -50.144531 138.640625 -58 C 139.273438 -59.125 140.15625 -59.6875 141.28125 -59.6875 C 141.757812 -59.6875 142.320312 -59.523438 142.96875 -59.203125 Z M 40.671875 -13.71875 C 49.984375 -20.613281 59.210938 -32.085938 68.359375 -48.140625 C 69.796875 -50.867188 71.640625 -54.4375 73.890625 -58.84375 C 76.140625 -63.257812 78.304688 -68.070312 80.390625 -73.28125 C 82.472656 -78.5 84.234375 -83.675781 85.671875 -88.8125 C 87.117188 -93.945312 87.84375 -98.519531 87.84375 -102.53125 C 87.84375 -105.257812 87.441406 -107.625 86.640625 -109.625 C 85.835938 -111.632812 84.554688 -113.203125 82.796875 -114.328125 C 81.515625 -115.128906 80.070312 -115.53125 78.46875 -115.53125 C 74.613281 -115.53125 70.28125 -113.5625 65.46875 -109.625 C 60.65625 -105.695312 55.71875 -100.5625 50.65625 -94.21875 C 45.601562 -87.882812 40.910156 -81.109375 36.578125 -73.890625 C 32.253906 -66.503906 28.523438 -59.160156 25.390625 -51.859375 C 22.265625 -44.566406 20.21875 -37.628906 19.25 -31.046875 C 18.769531 -28.484375 18.53125 -26 18.53125 -23.59375 C 18.53125 -18.613281 19.492188 -14.921875 21.421875 -12.515625 C 23.347656 -10.109375 25.832031 -8.90625 28.875 -8.90625 C 32.25 -8.90625 36.179688 -10.507812 40.671875 -13.71875 Z M 40.671875 -13.71875 "/></g></g></g><g fill="#1b1b1b" fill-opacity="1"><g transform="translate(250.612452, 258.228322)"><g><path d="M 224.796875 -59.453125 C 225.765625 -58.972656 226.25 -58.085938 226.25 -56.796875 C 226.25 -56.160156 226.164062 -55.679688 226 -55.359375 C 215.894531 -37.222656 205.382812 -23.460938 194.46875 -14.078125 C 183.5625 -4.691406 172.09375 0 160.0625 0 C 154.601562 0 150.148438 -0.800781 146.703125 -2.40625 C 143.253906 -4.007812 140.882812 -6.097656 139.59375 -8.671875 C 138.15625 -11.390625 137.4375 -14.4375 137.4375 -17.8125 C 137.4375 -23.90625 139.722656 -31.285156 144.296875 -39.953125 C 148.867188 -48.617188 155.566406 -58.804688 164.390625 -70.515625 C 168.554688 -75.816406 172.644531 -81.234375 176.65625 -86.765625 C 180.675781 -92.304688 184.207031 -98.285156 187.25 -104.703125 C 187.414062 -105.023438 187.78125 -105.863281 188.34375 -107.21875 C 188.90625 -108.582031 189.1875 -109.910156 189.1875 -111.203125 C 189.1875 -112.316406 188.863281 -113.195312 188.21875 -113.84375 C 187.570312 -114.488281 186.890625 -114.890625 186.171875 -115.046875 C 185.453125 -115.210938 184.691406 -115.296875 183.890625 -115.296875 C 183.566406 -115.296875 183.203125 -115.253906 182.796875 -115.171875 C 182.398438 -115.085938 182.039062 -115.046875 181.71875 -115.046875 C 178.664062 -114.566406 175.535156 -113.523438 172.328125 -111.921875 C 169.117188 -110.316406 165.910156 -108.3125 162.703125 -105.90625 C 153.878906 -99.488281 145.9375 -92.265625 138.875 -84.234375 C 131.8125 -76.210938 125.789062 -68.472656 120.8125 -61.015625 C 115.84375 -53.554688 111.992188 -47.421875 109.265625 -42.609375 L 86.40625 -1.921875 L 66.671875 -1.921875 C 75.816406 -18.285156 83.238281 -31.601562 88.9375 -41.875 C 94.632812 -52.144531 99.085938 -60.164062 102.296875 -65.9375 C 105.503906 -71.71875 107.789062 -75.851562 109.15625 -78.34375 C 110.519531 -80.832031 111.359375 -82.316406 111.671875 -82.796875 C 111.992188 -83.273438 112.15625 -83.515625 112.15625 -83.515625 C 114.882812 -88.171875 117.25 -93.101562 119.25 -98.3125 C 121.257812 -103.53125 122.265625 -107.664062 122.265625 -110.71875 C 122.265625 -112 122.023438 -112.960938 121.546875 -113.609375 C 120.421875 -114.734375 118.976562 -115.296875 117.21875 -115.296875 C 116.894531 -115.296875 116.570312 -115.253906 116.25 -115.171875 C 115.925781 -115.085938 115.609375 -115.046875 115.296875 -115.046875 C 112.242188 -114.566406 109.070312 -113.523438 105.78125 -111.921875 C 102.488281 -110.316406 99.238281 -108.3125 96.03125 -105.90625 C 87.851562 -99.96875 80.429688 -93.347656 73.765625 -86.046875 C 67.109375 -78.742188 61.289062 -71.5625 56.3125 -64.5 C 51.34375 -57.4375 47.414062 -51.34375 44.53125 -46.21875 L 19.734375 -1.921875 L 0 -1.921875 L 66.4375 -120.828125 L 86.40625 -120.828125 L 68.59375 -89.046875 C 73.882812 -94.984375 79.421875 -100.476562 85.203125 -105.53125 C 90.984375 -110.59375 96.835938 -114.726562 102.765625 -117.9375 C 108.703125 -121.144531 114.484375 -122.75 120.109375 -122.75 C 122.828125 -122.75 125.390625 -122.425781 127.796875 -121.78125 C 130.210938 -121.144531 132.0625 -119.703125 133.34375 -117.453125 C 135.101562 -114.722656 135.984375 -111.515625 135.984375 -107.828125 C 135.984375 -101.242188 133.175781 -91.859375 127.5625 -79.671875 C 133.175781 -86.734375 139.269531 -93.550781 145.84375 -100.125 C 152.425781 -106.707031 159.207031 -112.125 166.1875 -116.375 C 173.175781 -120.625 180.039062 -122.75 186.78125 -122.75 C 189.5 -122.75 192.0625 -122.425781 194.46875 -121.78125 C 196.875 -121.144531 198.722656 -119.703125 200.015625 -117.453125 C 201.453125 -115.367188 202.171875 -112.5625 202.171875 -109.03125 C 202.171875 -104.863281 200.804688 -99.367188 198.078125 -92.546875 C 195.359375 -85.722656 190.46875 -77.257812 183.40625 -67.15625 C 178.75 -60.414062 173.851562 -53.394531 168.71875 -46.09375 C 163.582031 -38.789062 159.648438 -32.25 156.921875 -26.46875 C 155.003906 -22.457031 154.046875 -19.085938 154.046875 -16.359375 C 154.046875 -13.316406 155.046875 -11.113281 157.046875 -9.75 C 159.054688 -8.382812 161.582031 -7.703125 164.625 -7.703125 C 167.832031 -7.703125 171.484375 -8.460938 175.578125 -9.984375 C 179.671875 -11.515625 183.644531 -13.800781 187.5 -16.84375 C 193.113281 -21.175781 198.6875 -26.753906 204.21875 -33.578125 C 209.757812 -40.398438 215.253906 -48.625 220.703125 -58.25 C 221.191406 -59.375 222 -59.9375 223.125 -59.9375 C 223.601562 -59.9375 224.160156 -59.773438 224.796875 -59.453125 Z M 224.796875 -59.453125 "/></g></g></g><g fill="#1b1b1b" fill-opacity="1"><g transform="translate(458.090917, 258.228322)"><g><path d="M 81.109375 -59.453125 C 82.078125 -58.804688 82.5625 -57.84375 82.5625 -56.5625 C 82.5625 -55.914062 82.476562 -55.4375 82.3125 -55.125 C 78.625 -48.539062 74.691406 -42 70.515625 -35.5 C 66.347656 -29 61.9375 -23.0625 57.28125 -17.6875 C 52.625 -12.3125 47.726562 -8.019531 42.59375 -4.8125 C 37.46875 -1.601562 32.015625 0 26.234375 0 C 18.367188 0 12.066406 -2.003906 7.328125 -6.015625 C 2.597656 -10.023438 0.234375 -15.882812 0.234375 -23.59375 C 0.234375 -28.082031 1.113281 -33.175781 2.875 -38.875 C 4.644531 -44.570312 7.457031 -50.867188 11.3125 -57.765625 L 46.453125 -120.828125 L 66.1875 -120.828125 L 32.015625 -59.453125 C 27.515625 -51.109375 23.941406 -43.882812 21.296875 -37.78125 C 18.648438 -31.6875 16.925781 -26.554688 16.125 -22.390625 C 16.125 -22.066406 16.082031 -21.703125 16 -21.296875 C 15.925781 -20.898438 15.890625 -20.460938 15.890625 -19.984375 C 15.890625 -17.734375 16.53125 -15.285156 17.8125 -12.640625 C 19.09375 -9.992188 21.5 -8.347656 25.03125 -7.703125 C 25.507812 -7.546875 26.3125 -7.46875 27.4375 -7.46875 C 30.164062 -7.46875 33.296875 -8.226562 36.828125 -9.75 C 40.359375 -11.269531 44.207031 -14.035156 48.375 -18.046875 C 53.351562 -22.859375 58.207031 -28.796875 62.9375 -35.859375 C 67.675781 -42.921875 72.289062 -50.382812 76.78125 -58.25 C 77.582031 -59.207031 78.546875 -59.6875 79.671875 -59.6875 C 80.304688 -59.6875 80.785156 -59.609375 81.109375 -59.453125 Z M 81.828125 -145.375 C 80.222656 -142.164062 78.175781 -139.515625 75.6875 -137.421875 C 73.207031 -135.335938 70.441406 -134.296875 67.390625 -134.296875 C 66.109375 -134.296875 64.828125 -134.539062 63.546875 -135.03125 C 59.691406 -136.632812 57.765625 -139.601562 57.765625 -143.9375 C 57.765625 -146.34375 58.566406 -149.148438 60.171875 -152.359375 C 62.097656 -155.890625 64.460938 -158.613281 67.265625 -160.53125 C 70.078125 -162.457031 72.765625 -163.421875 75.328125 -163.421875 C 76.617188 -163.421875 77.742188 -163.179688 78.703125 -162.703125 C 82.390625 -161.253906 84.234375 -158.285156 84.234375 -153.796875 C 84.234375 -150.910156 83.429688 -148.101562 81.828125 -145.375 Z M 81.828125 -145.375 "/></g></g></g><g fill="#1b1b1b" fill-opacity="1"><g transform="translate(502.619273, 258.228322)"><g><path d="M 158.609375 -59.453125 C 159.578125 -58.972656 160.0625 -58.085938 160.0625 -56.796875 C 160.0625 -56.160156 159.976562 -55.679688 159.8125 -55.359375 C 149.539062 -37.222656 139.03125 -23.460938 128.28125 -14.078125 C 117.53125 -4.691406 106.140625 0 94.109375 0 C 88.648438 0 84.195312 -0.800781 80.75 -2.40625 C 77.300781 -4.007812 74.9375 -6.097656 73.65625 -8.671875 C 72.207031 -11.390625 71.484375 -14.4375 71.484375 -17.8125 C 71.484375 -23.90625 73.769531 -31.320312 78.34375 -40.0625 C 82.914062 -48.8125 89.613281 -58.960938 98.4375 -70.515625 L 101.09375 -73.890625 C 103.820312 -77.421875 106.867188 -81.472656 110.234375 -86.046875 C 113.609375 -90.617188 116.5 -95.109375 118.90625 -99.515625 C 121.3125 -103.929688 122.515625 -107.664062 122.515625 -110.71875 C 122.515625 -113.769531 120.988281 -115.296875 117.9375 -115.296875 C 117.613281 -115.296875 117.25 -115.253906 116.84375 -115.171875 C 116.445312 -115.085938 116.085938 -115.046875 115.765625 -115.046875 C 112.722656 -114.566406 109.59375 -113.523438 106.375 -111.921875 C 103.164062 -110.316406 99.878906 -108.3125 96.515625 -105.90625 C 87.367188 -99.164062 79.101562 -91.582031 71.71875 -83.15625 C 64.34375 -74.726562 58.125 -66.664062 53.0625 -58.96875 C 48.007812 -51.269531 44.203125 -45.171875 41.640625 -40.671875 C 41.640625 -40.671875 41.476562 -40.390625 41.15625 -39.828125 C 40.832031 -39.265625 40.03125 -37.820312 38.75 -35.5 C 37.46875 -33.175781 35.34375 -29.40625 32.375 -24.1875 C 29.40625 -18.96875 25.191406 -11.546875 19.734375 -1.921875 L 0 -1.921875 L 66.4375 -120.828125 L 86.40625 -120.828125 L 67.640625 -87.125 C 72.929688 -93.226562 78.546875 -99.003906 84.484375 -104.453125 C 90.421875 -109.910156 96.476562 -114.320312 102.65625 -117.6875 C 108.832031 -121.0625 114.890625 -122.75 120.828125 -122.75 C 123.390625 -122.75 125.875 -122.425781 128.28125 -121.78125 C 130.6875 -121.144531 132.535156 -119.703125 133.828125 -117.453125 C 134.628906 -116.328125 135.226562 -115.082031 135.625 -113.71875 C 136.03125 -112.351562 136.234375 -110.710938 136.234375 -108.796875 C 136.234375 -104.617188 134.867188 -99.117188 132.140625 -92.296875 C 129.410156 -85.484375 124.515625 -77.101562 117.453125 -67.15625 C 112.796875 -60.414062 107.898438 -53.394531 102.765625 -46.09375 C 97.640625 -38.789062 93.710938 -32.25 90.984375 -26.46875 C 89.054688 -22.457031 88.09375 -19.085938 88.09375 -16.359375 C 88.09375 -13.316406 89.054688 -11.113281 90.984375 -9.75 C 92.910156 -8.382812 95.394531 -7.703125 98.4375 -7.703125 C 101.644531 -7.703125 105.253906 -8.460938 109.265625 -9.984375 C 113.285156 -11.515625 117.300781 -13.800781 121.3125 -16.84375 C 126.925781 -21.175781 132.5 -26.753906 138.03125 -33.578125 C 143.570312 -40.398438 148.988281 -48.625 154.28125 -58.25 C 154.925781 -59.375 155.804688 -59.9375 156.921875 -59.9375 C 157.410156 -59.9375 157.972656 -59.773438 158.609375 -59.453125 Z M 158.609375 -59.453125 "/></g></g></g><g fill="#1b1b1b" fill-opacity="1"><g transform="translate(642.703255, 258.228322)"><g><path d="M 129.015625 -59.453125 C 129.972656 -58.972656 130.453125 -58.085938 130.453125 -56.796875 C 130.453125 -56.160156 130.375 -55.679688 130.21875 -55.359375 C 125.238281 -46.535156 119.257812 -39.273438 112.28125 -33.578125 C 105.300781 -27.878906 97.796875 -23.265625 89.765625 -19.734375 C 81.742188 -16.203125 73.722656 -13.234375 65.703125 -10.828125 L 63.78125 -7.21875 C 61.375 -2.882812 58.320312 2.207031 54.625 8.0625 C 50.9375 13.914062 46.804688 19.929688 42.234375 26.109375 C 37.660156 32.285156 32.765625 38.0625 27.546875 43.4375 C 22.335938 48.8125 17.003906 53.144531 11.546875 56.4375 C 6.097656 59.726562 0.644531 61.375 -4.8125 61.375 C -5.9375 61.375 -7.019531 61.253906 -8.0625 61.015625 C -9.101562 60.773438 -10.1875 60.570312 -11.3125 60.40625 C -17.25 58.488281 -20.695312 54.476562 -21.65625 48.375 C -21.820312 47.738281 -21.90625 47.140625 -21.90625 46.578125 C -21.90625 46.015625 -21.90625 45.410156 -21.90625 44.765625 C -21.90625 39.628906 -19.9375 33.570312 -16 26.59375 C -12.070312 19.613281 -5.773438 12.835938 2.890625 6.265625 C 4.816406 4.816406 6.898438 3.488281 9.140625 2.28125 C 11.390625 1.082031 13.640625 -0.078125 15.890625 -1.203125 C 10.109375 -2.960938 6.015625 -6.25 3.609375 -11.0625 C 1.203125 -15.882812 0 -21.019531 0 -26.46875 C 0 -27.4375 0.0351562 -28.359375 0.109375 -29.234375 C 0.191406 -30.117188 0.316406 -31.046875 0.484375 -32.015625 C 1.285156 -38.910156 3.128906 -46.25 6.015625 -54.03125 C 8.898438 -61.8125 12.671875 -69.554688 17.328125 -77.265625 C 24.546875 -88.972656 31.484375 -98.113281 38.140625 -104.6875 C 44.804688 -111.269531 51.144531 -115.925781 57.15625 -118.65625 C 63.175781 -121.382812 68.675781 -122.75 73.65625 -122.75 C 75.738281 -122.75 77.703125 -122.546875 79.546875 -122.140625 C 81.390625 -121.742188 83.113281 -121.222656 84.71875 -120.578125 C 88.09375 -119.296875 90.539062 -117.128906 92.0625 -114.078125 C 93.582031 -111.035156 94.34375 -107.347656 94.34375 -103.015625 C 94.34375 -100.765625 94.101562 -98.273438 93.625 -95.546875 L 107.59375 -120.578125 L 127.5625 -120.578125 L 70.28125 -18.53125 C 80.875 -22.0625 91.023438 -26.753906 100.734375 -32.609375 C 110.441406 -38.460938 118.421875 -47.007812 124.671875 -58.25 C 125.472656 -59.375 126.4375 -59.9375 127.5625 -59.9375 C 127.882812 -59.9375 128.367188 -59.773438 129.015625 -59.453125 Z M 19.25 -31.296875 C 18.769531 -28.722656 18.53125 -26.234375 18.53125 -23.828125 C 18.53125 -18.847656 19.492188 -15.15625 21.421875 -12.75 C 23.347656 -10.34375 25.832031 -9.140625 28.875 -9.140625 C 32.25 -9.140625 36.179688 -10.742188 40.671875 -13.953125 C 46.929688 -18.609375 53.109375 -25.347656 59.203125 -34.171875 L 77.015625 -66.1875 C 80.390625 -73.25 83.035156 -79.988281 84.953125 -86.40625 C 86.878906 -92.820312 87.84375 -98.28125 87.84375 -102.78125 C 87.84375 -108.707031 86.238281 -112.554688 83.03125 -114.328125 C 81.914062 -114.972656 80.554688 -115.296875 78.953125 -115.296875 C 75.097656 -115.296875 70.679688 -113.367188 65.703125 -109.515625 C 60.734375 -105.660156 55.71875 -100.5625 50.65625 -94.21875 C 45.601562 -87.882812 40.910156 -81.109375 36.578125 -73.890625 C 32.253906 -66.503906 28.523438 -59.160156 25.390625 -51.859375 C 22.265625 -44.566406 20.21875 -37.710938 19.25 -31.296875 Z M -9.625 54.390625 C -8.1875 54.878906 -6.742188 55.125 -5.296875 55.125 C 1.765625 55.125 8.863281 49.90625 16 39.46875 C 23.144531 29.039062 31.929688 14.519531 42.359375 -4.09375 C 35.617188 -2.164062 29.195312 -0.0390625 23.09375 2.28125 C 17 4.613281 11.46875 7.625 6.5 11.3125 C -1.363281 17.09375 -7.0625 23.070312 -10.59375 29.25 C -14.125 35.425781 -15.890625 40.679688 -15.890625 45.015625 C -15.890625 46.128906 -15.804688 46.929688 -15.640625 47.421875 C -14.835938 51.109375 -12.832031 53.429688 -9.625 54.390625 Z M -9.625 54.390625 "/></g></g></g></g></g></svg>