<svg xmlns="http://www.w3.org/2000/svg" xmlns:xlink="http://www.w3.org/1999/xlink" width="2000" zoomAndPan="magnify" viewBox="0 0 1500 1499.999933" height="2000" preserveAspectRatio="xMidYMid meet" version="1.0"><defs><clipPath id="ed014ef53c"><path d="M 32.859375 181.667969 L 1466.859375 181.667969 L 1466.859375 1318.667969 L 32.859375 1318.667969 Z M 32.859375 181.667969 " clip-rule="nonzero"/></clipPath></defs><g clip-path="url(#ed014ef53c)"><path fill="#000000" d="M 527.550781 181.667969 C 526.09375 181.636719 524.636719 181.648438 523.183594 181.699219 C 521.726562 181.753906 520.277344 181.851562 518.828125 181.992188 C 517.375 182.128906 515.933594 182.3125 514.492188 182.535156 C 513.054688 182.757812 511.625 183.023438 510.199219 183.332031 C 508.777344 183.636719 507.363281 183.988281 505.960938 184.378906 C 504.558594 184.765625 503.167969 185.199219 501.789062 185.667969 C 500.414062 186.140625 499.050781 186.652344 497.703125 187.203125 C 496.355469 187.753906 495.023438 188.34375 493.710938 188.972656 C 492.398438 189.601562 491.105469 190.269531 489.828125 190.972656 C 488.554688 191.675781 487.300781 192.417969 486.070312 193.195312 C 484.839844 193.972656 483.632812 194.789062 482.449219 195.636719 C 481.265625 196.484375 480.109375 197.367188 478.976562 198.285156 C 477.84375 199.199219 476.738281 200.148438 475.664062 201.128906 C 474.585938 202.109375 473.539062 203.121094 472.523438 204.164062 C 471.503906 205.207031 470.519531 206.277344 469.5625 207.375 C 468.609375 208.476562 467.6875 209.601562 466.796875 210.757812 C 465.910156 211.910156 465.054688 213.089844 464.234375 214.292969 C 463.414062 215.496094 462.632812 216.722656 461.882812 217.972656 C 461.132812 219.222656 460.421875 220.492188 459.75 221.785156 C 459.074219 223.074219 458.441406 224.386719 457.84375 225.714844 C 457.246094 227.042969 456.6875 228.386719 456.167969 229.75 C 455.648438 231.109375 455.167969 232.484375 454.730469 233.875 C 454.292969 235.261719 453.894531 236.664062 453.539062 238.074219 C 453.183594 239.488281 452.867188 240.910156 452.59375 242.339844 C 452.320312 243.769531 452.089844 245.207031 451.898438 246.652344 C 451.710938 248.097656 451.5625 249.546875 451.457031 251 C 451.351562 252.453125 451.289062 253.90625 451.269531 255.363281 C 451.25 256.820312 451.273438 258.277344 451.339844 259.730469 C 451.402344 261.1875 451.511719 262.636719 451.660156 264.085938 C 451.8125 265.535156 452.003906 266.980469 452.238281 268.417969 C 452.472656 269.855469 452.75 271.285156 453.066406 272.707031 C 453.386719 274.128906 453.746094 275.539062 454.144531 276.9375 L 483.320312 385.171875 C 345.519531 429.730469 235.472656 535.296875 184.101562 669.941406 C 96.957031 695.179688 32.859375 774.738281 32.859375 870.058594 C 32.859375 976.449219 112.53125 1063.339844 215.261719 1076.601562 C 297.566406 1220.875 452.453125 1318.402344 630.359375 1318.402344 L 869.359375 1318.402344 C 1047.269531 1318.402344 1202.15625 1220.875 1284.460938 1076.601562 C 1387.1875 1063.339844 1466.859375 976.449219 1466.859375 870.058594 C 1466.859375 774.738281 1402.765625 695.179688 1315.617188 669.941406 C 1264.25 535.296875 1154.199219 429.730469 1016.402344 385.171875 L 1045.695312 276.9375 C 1046.097656 275.519531 1046.460938 274.085938 1046.78125 272.644531 C 1047.101562 271.199219 1047.378906 269.75 1047.617188 268.289062 C 1047.851562 266.832031 1048.042969 265.367188 1048.1875 263.894531 C 1048.335938 262.425781 1048.441406 260.949219 1048.5 259.472656 C 1048.5625 257.996094 1048.578125 256.519531 1048.550781 255.042969 C 1048.523438 253.5625 1048.453125 252.089844 1048.335938 250.613281 C 1048.222656 249.140625 1048.0625 247.671875 1047.863281 246.207031 C 1047.660156 244.742188 1047.414062 243.285156 1047.125 241.835938 C 1046.839844 240.386719 1046.507812 238.949219 1046.132812 237.519531 C 1045.757812 236.089844 1045.34375 234.671875 1044.886719 233.265625 C 1044.429688 231.859375 1043.929688 230.46875 1043.390625 229.09375 C 1042.847656 227.71875 1042.269531 226.359375 1041.648438 225.019531 C 1041.027344 223.675781 1040.367188 222.355469 1039.667969 221.054688 C 1038.96875 219.75 1038.230469 218.472656 1037.457031 217.210938 C 1036.679688 215.953125 1035.867188 214.71875 1035.019531 213.511719 C 1034.171875 212.300781 1033.289062 211.117188 1032.371094 209.957031 C 1031.453125 208.800781 1030.5 207.671875 1029.511719 206.570312 C 1028.527344 205.46875 1027.511719 204.398438 1026.460938 203.359375 C 1025.414062 202.316406 1024.332031 201.308594 1023.226562 200.332031 C 1022.117188 199.355469 1020.980469 198.414062 1019.816406 197.503906 C 1018.648438 196.59375 1017.460938 195.71875 1016.242188 194.882812 C 1015.027344 194.042969 1013.785156 193.242188 1012.519531 192.476562 C 1011.257812 191.710938 1009.972656 190.984375 1008.664062 190.296875 C 1007.355469 189.609375 1006.03125 188.957031 1004.683594 188.347656 C 1003.339844 187.738281 1001.976562 187.167969 1000.597656 186.640625 C 999.21875 186.113281 997.824219 185.625 996.414062 185.179688 C 995.007812 184.730469 993.585938 184.328125 992.152344 183.964844 C 990.722656 183.605469 989.277344 183.285156 987.828125 183.007812 C 986.375 182.734375 984.917969 182.5 983.453125 182.308594 C 981.988281 182.121094 980.519531 181.976562 979.042969 181.871094 C 977.570312 181.769531 976.09375 181.710938 974.617188 181.695312 C 973.140625 181.679688 971.664062 181.710938 970.1875 181.785156 C 968.214844 181.882812 966.246094 182.0625 964.28125 182.316406 C 962.320312 182.574219 960.371094 182.90625 958.4375 183.316406 C 956.503906 183.726562 954.585938 184.214844 952.691406 184.777344 C 950.792969 185.339844 948.921875 185.980469 947.074219 186.691406 C 945.230469 187.402344 943.414062 188.1875 941.632812 189.042969 C 939.847656 189.898438 938.101562 190.824219 936.390625 191.820312 C 934.679688 192.816406 933.011719 193.878906 931.386719 195.003906 C 929.761719 196.132812 928.183594 197.324219 926.652344 198.578125 C 925.121094 199.828125 923.640625 201.140625 922.214844 202.511719 C 920.785156 203.882812 919.417969 205.308594 918.101562 206.789062 C 916.789062 208.269531 915.535156 209.796875 914.34375 211.378906 C 913.152344 212.957031 912.023438 214.582031 910.960938 216.25 C 909.894531 217.917969 908.902344 219.628906 907.972656 221.375 C 907.046875 223.125 906.1875 224.90625 905.402344 226.722656 C 904.617188 228.539062 903.902344 230.382812 903.261719 232.257812 C 902.625 234.128906 902.058594 236.023438 901.570312 237.941406 L 867.960938 361.9375 L 631.878906 361.9375 L 598.269531 237.941406 C 597.769531 235.980469 597.191406 234.042969 596.535156 232.128906 C 595.878906 230.214844 595.144531 228.332031 594.335938 226.476562 C 593.527344 224.621094 592.644531 222.800781 591.6875 221.019531 C 590.730469 219.234375 589.703125 217.496094 588.601562 215.796875 C 587.503906 214.097656 586.339844 212.445312 585.105469 210.839844 C 583.875 209.234375 582.578125 207.683594 581.21875 206.183594 C 579.859375 204.683594 578.441406 203.242188 576.96875 201.859375 C 575.492188 200.472656 573.960938 199.152344 572.378906 197.890625 C 570.796875 196.632812 569.164062 195.4375 567.484375 194.3125 C 565.804688 193.183594 564.082031 192.128906 562.316406 191.140625 C 560.550781 190.152344 558.746094 189.238281 556.90625 188.398438 C 555.066406 187.558594 553.195312 186.792969 551.292969 186.105469 C 549.390625 185.417969 547.464844 184.804688 545.511719 184.273438 C 543.558594 183.742188 541.589844 183.289062 539.601562 182.917969 C 537.613281 182.546875 535.613281 182.257812 533.601562 182.046875 C 531.589844 181.839844 529.570312 181.710938 527.550781 181.667969 Z M 630.359375 511.386719 L 869.359375 511.386719 C 1050.582031 511.386719 1197.984375 658.859375 1197.984375 840.171875 C 1197.984375 1021.480469 1050.582031 1168.957031 869.359375 1168.957031 L 630.359375 1168.957031 C 449.140625 1168.957031 301.734375 1021.480469 301.734375 840.171875 C 301.734375 658.859375 449.140625 511.386719 630.359375 511.386719 Z M 630.359375 601.054688 C 498.550781 601.054688 391.359375 708.296875 391.359375 840.171875 C 391.359375 972.042969 498.550781 1079.285156 630.359375 1079.285156 L 869.359375 1079.285156 C 1001.167969 1079.285156 1108.359375 972.042969 1108.359375 840.171875 C 1108.359375 708.296875 1001.167969 601.054688 869.359375 601.054688 Z M 570.609375 780.390625 C 603.59375 780.390625 630.359375 807.171875 630.359375 840.171875 C 630.359375 873.167969 603.59375 899.949219 570.609375 899.949219 C 537.628906 899.949219 510.859375 873.167969 510.859375 840.171875 C 510.859375 807.171875 537.628906 780.390625 570.609375 780.390625 Z M 929.109375 780.390625 C 962.09375 780.390625 988.859375 807.171875 988.859375 840.171875 C 988.859375 873.167969 962.09375 899.949219 929.109375 899.949219 C 896.128906 899.949219 869.359375 873.167969 869.359375 840.171875 C 869.359375 807.171875 896.128906 780.390625 929.109375 780.390625 Z M 929.109375 780.390625 " fill-opacity="1" fill-rule="nonzero"/></g></svg>