<svg xmlns="http://www.w3.org/2000/svg" xmlns:xlink="http://www.w3.org/1999/xlink" width="2000" zoomAndPan="magnify" viewBox="0 0 1500 1499.999933" height="2000" preserveAspectRatio="xMidYMid meet" version="1.0"><defs><clipPath id="6c9865b28e"><path d="M 55.472656 55.472656 L 1444.472656 55.472656 L 1444.472656 1444.472656 L 55.472656 1444.472656 Z M 55.472656 55.472656 " clip-rule="nonzero"/></clipPath><clipPath id="ae6a386926"><path d="M 55.472656 792 L 529 792 L 529 1444.472656 L 55.472656 1444.472656 Z M 55.472656 792 " clip-rule="nonzero"/></clipPath></defs><g clip-path="url(#6c9865b28e)"><path fill="#191919" d="M 1066.476562 55.472656 L 874.0625 55.472656 L 874.0625 308.5 L 1129.539062 563.972656 L 1129.59375 937.125 L 247.882812 55.472656 L 55.472656 55.472656 L 55.472656 308.5 L 1191.488281 1444.519531 L 1444.519531 1444.519531 L 1444.519531 433.515625 Z M 1066.476562 55.472656 " fill-opacity="1" fill-rule="nonzero"/></g><g clip-path="url(#ae6a386926)"><path fill="#191919" d="M 55.472656 903.457031 L 55.472656 1127.09375 L 372.894531 1444.519531 L 528.191406 1444.519531 L 528.191406 1154.375 L 166.371094 792.554688 Z M 55.472656 903.457031 " fill-opacity="1" fill-rule="nonzero"/></g></svg>