<svg xmlns="http://www.w3.org/2000/svg" xmlns:xlink="http://www.w3.org/1999/xlink" width="1000" zoomAndPan="magnify" viewBox="0 0 750 749.999995" height="1000" preserveAspectRatio="xMidYMid meet" version="1.0"><defs><clipPath id="13188cb13d"><path d="M 31.980469 67.5 L 719 67.5 L 719 741.433594 L 31.980469 741.433594 Z M 31.980469 67.5 " clip-rule="nonzero"/></clipPath><clipPath id="80a0167068"><path d="M 623.210938 303.394531 C 658.058594 263.246094 655.589844 203.433594 617.582031 166.113281 C 579.578125 128.796875 518.792969 126.371094 477.769531 160.589844 C 473.515625 108.050781 428.785156 67.5 375 67.5 C 321.214844 67.5 276.484375 108.050781 272.230469 160.726562 C 231.34375 126.507812 170.421875 128.933594 132.417969 166.25 C 94.410156 203.566406 91.941406 263.246094 126.789062 303.527344 C 73.28125 307.570312 31.980469 351.488281 31.980469 404.296875 C 31.980469 457.109375 73.28125 501.027344 126.929688 505.203125 C 92.078125 545.351562 94.546875 605.164062 132.554688 642.484375 C 170.558594 679.800781 231.34375 682.226562 272.367188 648.007812 C 276.621094 700.679688 321.351562 741.230469 375.136719 741.230469 C 428.921875 741.230469 473.652344 700.679688 477.90625 648.140625 C 518.792969 682.359375 579.714844 679.933594 617.722656 642.617188 C 655.726562 605.300781 658.195312 545.621094 623.347656 505.339844 C 676.996094 501.160156 718.289062 457.242188 718.289062 404.433594 C 718.019531 351.488281 676.71875 307.570312 623.210938 303.394531 Z M 623.210938 303.394531 " clip-rule="nonzero"/></clipPath><clipPath id="c0ed4be3c7"><path d="M 0.980469 0.5 L 687.078125 0.5 L 687.078125 674.359375 L 0.980469 674.359375 Z M 0.980469 0.5 " clip-rule="nonzero"/></clipPath><clipPath id="842aa0a803"><path d="M 592.210938 236.394531 C 627.058594 196.246094 624.589844 136.433594 586.582031 99.113281 C 548.578125 61.796875 487.792969 59.371094 446.769531 93.589844 C 442.515625 41.050781 397.785156 0.5 344 0.5 C 290.214844 0.5 245.484375 41.050781 241.230469 93.726562 C 200.34375 59.507812 139.421875 61.933594 101.417969 99.25 C 63.410156 136.566406 60.941406 196.246094 95.789062 236.527344 C 42.28125 240.570312 0.980469 284.488281 0.980469 337.296875 C 0.980469 390.109375 42.28125 434.027344 95.929688 438.203125 C 61.078125 478.351562 63.546875 538.164062 101.554688 575.484375 C 139.558594 612.800781 200.34375 615.226562 241.367188 581.007812 C 245.621094 633.679688 290.351562 674.230469 344.136719 674.230469 C 397.921875 674.230469 442.652344 633.679688 446.90625 581.140625 C 487.792969 615.359375 548.714844 612.933594 586.722656 575.617188 C 624.726562 538.300781 627.195312 478.621094 592.347656 438.339844 C 645.996094 434.160156 687.289062 390.242188 687.289062 337.433594 C 687.019531 284.488281 645.71875 240.570312 592.210938 236.394531 Z M 592.210938 236.394531 " clip-rule="nonzero"/></clipPath><clipPath id="bd617c941a"><rect x="0" width="688" y="0" height="675"/></clipPath></defs><g clip-path="url(#13188cb13d)"><g clip-path="url(#80a0167068)"><g transform="matrix(1, 0, 0, 1, 31, 67)"><g clip-path="url(#bd617c941a)"><g clip-path="url(#c0ed4be3c7)"><g clip-path="url(#842aa0a803)"><path fill="#a7ddb3" d="M 0.980469 0.5 L 687.019531 0.5 L 687.019531 674.433594 L 0.980469 674.433594 Z M 0.980469 0.5 " fill-opacity="1" fill-rule="nonzero"/></g></g></g></g></g></g></svg>